KleiBook.ufo
<glyph name="exclam" format="1">
  <advance width="236"/>
  <unicode hex="0021"/>
  <outline>
    <contour>
      <point x="60" y="40" type="curve" smooth="yes"/>
      <point x="60" y="71.8529"/>
      <point x="85.6673" y="98"/>
      <point x="118.507" y="98" type="curve" smooth="yes"/>
      <point x="150.388" y="98"/>
      <point x="176.507" y="71.8812"/>
      <point x="176.507" y="40" type="curve" smooth="yes"/>
      <point x="176.507" y="8.13178"/>
      <point x="150.406" y="-18.0996"/>
      <point x="118.507" y="-18.0996" type="curve" smooth="yes"/>
      <point x="85.649" y="-18.0996"/>
      <point x="60" y="8.16007"/>
    </contour>
    <contour>
      <point x="168.507" y="700.865" type="curve"/>
      <point x="147.5" y="233.685" type="line"/>
      <point x="146.64" y="217.037"/>
      <point x="135.951" y="203.117"/>
      <point x="119.169" y="202.712" type="curve" smooth="yes"/>
      <point x="119.006" y="202.709" type="line"/>
      <point x="118.844" y="202.712" type="line" smooth="yes"/>
      <point x="101.371" y="203.101"/>
      <point x="90.4922" y="216.541"/>
      <point x="89.5156" y="233.65" type="curve"/>
      <point x="66.5068" y="700.851" type="line"/>
      <point x="66.5068" y="734.152"/>
      <point x="92.623" y="751.434"/>
      <point x="117.929" y="751.434" type="curve" smooth="yes"/>
      <point x="143.62" y="751.434"/>
      <point x="168.507" y="733.653"/>
    </contour>
  </outline>
</glyph>
<glyph name="percent" format="1">
  <advance width="894"/>
  <unicode hex="0025"/>
  <outline>
    <contour>
      <point x="220.182" y="617" type="curve" smooth="yes"/>
      <point x="173.394" y="617"/>
      <point x="129" y="552.019"/>
      <point x="129" y="449" type="curve" smooth="yes"/>
      <point x="129" y="345.999"/>
      <point x="173.405" y="281"/>
      <point x="220.182" y="281" type="curve" smooth="yes"/>
      <point x="265.944" y="281"/>
      <point x="312.443" y="346.032"/>
      <point x="312.443" y="449" type="curve" smooth="yes"/>
      <point x="312.443" y="551.952"/>
      <point x="265.934" y="617"/>
    </contour>
    <contour>
      <point x="220.181" y="249" type="curve" smooth="yes"/>
      <point x="126.637" y="249"/>
      <point x="52" y="322.086"/>
      <point x="52" y="449" type="curve" smooth="yes"/>
      <point x="52" y="575.914"/>
      <point x="126.637" y="649"/>
      <point x="220.181" y="649" type="curve" smooth="yes"/>
      <point x="314.906" y="649"/>
      <point x="390.354" y="575.858"/>
      <point x="390.354" y="449" type="curve" smooth="yes"/>
      <point x="390.354" y="322.142"/>
      <point x="314.906" y="249"/>
    </contour>
    <contour>
      <point x="677.818" y="352" type="curve" smooth="yes"/>
      <point x="632.056" y="352"/>
      <point x="585.557" y="286.968"/>
      <point x="585.557" y="184" type="curve" smooth="yes"/>
      <point x="585.557" y="81.0479"/>
      <point x="632.066" y="16"/>
      <point x="677.818" y="16" type="curve" smooth="yes"/>
      <point x="723.581" y="16"/>
      <point x="769" y="81.0322"/>
      <point x="769" y="184" type="curve" smooth="yes"/>
      <point x="769" y="286.952"/>
      <point x="723.571" y="352"/>
    </contour>
    <contour>
      <point x="677.818" y="-16" type="curve" smooth="yes"/>
      <point x="583.134" y="-16"/>
      <point x="506.621" y="57.0859"/>
      <point x="506.621" y="184" type="curve" smooth="yes"/>
      <point x="506.621" y="310.914"/>
      <point x="583.134" y="384"/>
      <point x="677.818" y="384" type="curve" smooth="yes"/>
      <point x="771.363" y="384"/>
      <point x="846" y="310.914"/>
      <point x="846" y="184" type="curve" smooth="yes"/>
      <point x="846" y="57.0859"/>
      <point x="771.363" y="-16"/>
    </contour>
    <contour>
      <point x="673.081" y="702.217" type="curve"/>
      <point x="686" y="694" type="line" smooth="yes"/>
      <point x="690.489" y="691.42"/>
      <point x="694.866" y="686.887"/>
      <point x="694.866" y="680.332" type="curve" smooth="yes"/>
      <point x="692.582" y="671.175" type="line"/>
      <point x="247.536" y="-64.709" type="line"/>
      <point x="244.429" y="-69.7607"/>
      <point x="238.996" y="-70.8271"/>
      <point x="235.203" y="-70.8271" type="curve" smooth="yes"/>
      <point x="225.799" y="-70.8271"/>
      <point x="218.69" y="-66.4356"/>
      <point x="212.355" y="-63.127" type="curve" smooth="yes"/>
      <point x="207.182" y="-60.1523"/>
      <point x="204.104" y="-54.9023"/>
      <point x="204.104" y="-49.3926" type="curve" smooth="yes"/>
      <point x="204.104" y="-46.0566"/>
      <point x="205.188" y="-43.1055"/>
      <point x="206.587" y="-40.4238" type="curve" smooth="yes"/>
      <point x="650.706" y="695.705" type="line"/>
      <point x="653.601" y="700.329"/>
      <point x="658.627" y="704.123"/>
      <point x="665.09" y="704.123" type="curve" smooth="yes"/>
      <point x="668.934" y="704.123"/>
      <point x="673.081" y="702.217"/>
    </contour>
  </outline>
</glyph>
<glyph name="quotesingle" format="1">
  <advance width="187"/>
  <unicode hex="0027"/>
  <outline>
    <contour>
      <point x="92" y="674" type="curve" smooth="yes"/>
      <point x="96" y="674" type="line" smooth="yes"/>
      <point x="117.576" y="674"/>
      <point x="130" y="656.615"/>
      <point x="130" y="636" type="curve" smooth="yes"/>
      <point x="130" y="628.645" type="line"/>
      <point x="117.964" y="510.292" type="line"/>
      <point x="117.964" y="510.292"/>
      <point x="110.666" y="494"/>
      <point x="101" y="494" type="curve" smooth="yes"/>
      <point x="87" y="494" type="line" smooth="yes"/>
      <point x="76.8709" y="494"/>
      <point x="70.7237" y="500.707"/>
      <point x="69.8776" y="511.849" type="curve"/>
      <point x="58" y="628.645" type="line"/>
      <point x="58" y="634" type="line" smooth="yes"/>
      <point x="58" y="654.631"/>
      <point x="71.9012" y="674"/>
    </contour>
  </outline>
</glyph>
<glyph name="parenright" format="1">
  <advance width="280"/>
  <unicode hex="0029"/>
  <outline>
    <contour>
      <point x="36" y="749.834" type="curve"/>
      <point x="36" y="793.779" type="line"/>
      <point x="48.3018" y="783.382"/>
      <point x="231" y="642.29"/>
      <point x="231" y="331" type="curve" smooth="yes"/>
      <point x="231" y="50.6367"/>
      <point x="47.5811" y="-115.313"/>
      <point x="36" y="-126.719" type="curve"/>
      <point x="36" y="-71.8809" type="line"/>
      <point x="64.0811" y="-29.7598"/>
      <point x="159" y="35.3721"/>
      <point x="159" y="330" type="curve" smooth="yes"/>
      <point x="159" y="647.89"/>
      <point x="64.1113" y="708.749"/>
    </contour>
  </outline>
</glyph>
<glyph name="plus" format="1">
  <advance width="406"/>
  <unicode hex="002B"/>
  <outline>
    <contour>
      <point x="232" y="152" type="line" smooth="yes"/>
      <point x="232" y="137.978"/>
      <point x="213.142" y="137"/>
      <point x="204" y="137" type="curve" smooth="yes"/>
      <point x="195.368" y="137"/>
      <point x="174" y="137.409"/>
      <point x="174" y="152" type="curve" smooth="yes"/>
      <point x="174" y="267" type="line" smooth="yes"/>
      <point x="174" y="267.722"/>
      <point x="173.721" y="268.716"/>
      <point x="173.609" y="269" type="curve"/>
      <point x="66.8641" y="269" type="line"/>
      <point x="65.7864" y="269.359" type="line" smooth="yes"/>
      <point x="53.757" y="273.369"/>
      <point x="52" y="289.216"/>
      <point x="52" y="300" type="curve" smooth="yes"/>
      <point x="52" y="309.826"/>
      <point x="53.8522" y="327"/>
      <point x="68" y="327" type="curve" smooth="yes"/>
      <point x="172" y="327" type="line" smooth="yes"/>
      <point x="173.34" y="327"/>
      <point x="173.675" y="327.256"/>
      <point x="173.675" y="327.256" type="curve"/>
      <point x="173.79" y="327.45"/>
      <point x="174" y="328.249"/>
      <point x="174" y="329" type="curve" smooth="yes"/>
      <point x="174" y="437.045" type="line"/>
      <point x="178.786" y="438.641" type="line" smooth="yes"/>
      <point x="188.056" y="441.731"/>
      <point x="196.814" y="444"/>
      <point x="206" y="444" type="curve" smooth="yes"/>
      <point x="215.22" y="444"/>
      <point x="222.567" y="441.543"/>
      <point x="229.13" y="438.261" type="curve" smooth="yes"/>
      <point x="233" y="436.326" type="line"/>
      <point x="233" y="328" type="line" smooth="yes"/>
      <point x="233" y="327.57"/>
      <point x="233.006" y="327"/>
      <point x="233.006" y="327" type="curve"/>
      <point x="341" y="327" type="line" smooth="yes"/>
      <point x="355.676" y="327"/>
      <point x="354" y="303.131"/>
      <point x="354" y="295" type="curve" smooth="yes"/>
      <point x="354" y="288.266"/>
      <point x="355.497" y="269"/>
      <point x="341" y="269" type="curve" smooth="yes"/>
      <point x="232" y="269" type="line" smooth="yes"/>
    </contour>
  </outline>
</glyph>
<glyph name="slash" format="1">
  <advance width="398"/>
  <unicode hex="002F"/>
  <outline>
    <contour>
      <point x="45.4258" y="-93.5967" type="line" smooth="yes"/>
      <point x="147.358" y="185.22"/>
      <point x="220.29" y="420.998"/>
      <point x="292.26" y="677.889" type="curve" smooth="yes"/>
      <point x="292.882" y="680.109" type="line"/>
      <point x="294.702" y="681.525" type="line" smooth="yes"/>
      <point x="313.462" y="696.116"/>
      <point x="319.728" y="703"/>
      <point x="334" y="703" type="curve" smooth="yes"/>
      <point x="350.057" y="703"/>
      <point x="362" y="692.849"/>
      <point x="362" y="676" type="curve" smooth="yes"/>
      <point x="362" y="674.796" type="line"/>
      <point x="361.598" y="673.661" type="line" smooth="yes"/>
      <point x="274.23" y="427.266"/>
      <point x="127.628" y="-44.1709"/>
      <point x="122.871" y="-59.4782" type="curve"/>
      <point x="115.458" y="-113.026"/>
      <point x="83.917" y="-91.4082"/>
      <point x="54.4775" y="-102.547" type="curve" smooth="yes"/>
      <point x="40.1748" y="-107.959" type="line"/>
    </contour>
  </outline>
</glyph>
<glyph name="zero" format="1">
  <advance width="480"/>
  <unicode hex="0030"/>
  <outline>
    <contour>
      <point x="241" y="596" type="curve" smooth="yes"/>
      <point x="171.514" y="596"/>
      <point x="105" y="474.549"/>
      <point x="105" y="316" type="curve" smooth="yes"/>
      <point x="105" y="157.452"/>
      <point x="171.513" y="36"/>
      <point x="241" y="36" type="curve" smooth="yes"/>
      <point x="310.486" y="36"/>
      <point x="377" y="157.451"/>
      <point x="377" y="316" type="curve" smooth="yes"/>
      <point x="377" y="474.548"/>
      <point x="310.487" y="596"/>
    </contour>
    <contour>
      <point x="241" y="-8" type="curve" smooth="yes"/>
      <point x="110.683" y="-8"/>
      <point x="18" y="139.491"/>
      <point x="18" y="316" type="curve" smooth="yes"/>
      <point x="18" y="492.509"/>
      <point x="110.683" y="640"/>
      <point x="241" y="640" type="curve" smooth="yes"/>
      <point x="371.317" y="640"/>
      <point x="464" y="492.509"/>
      <point x="464" y="316" type="curve" smooth="yes"/>
      <point x="464" y="139.491"/>
      <point x="371.317" y="-8"/>
    </contour>
  </outline>
</glyph>
<glyph name="one" format="1">
  <advance width="480"/>
  <unicode hex="0031"/>
  <outline>
    <contour>
      <point x="319" y="20" type="curve" smooth="yes"/>
      <point x="326" y="20" type="line"/>
      <point x="326" y="0" type="line"/>
      <point x="166" y="0" type="line"/>
      <point x="166" y="20" type="line"/>
      <point x="173" y="20" type="line" smooth="yes"/>
      <point x="192.911" y="20"/>
      <point x="202" y="32.9912"/>
      <point x="202" y="43.6855" type="curve" smooth="yes"/>
      <point x="202" y="527.581" type="line" smooth="yes"/>
      <point x="202" y="545.983"/>
      <point x="200.072" y="564.998"/>
      <point x="192" y="564.998" type="curve" smooth="yes"/>
      <point x="173.611" y="564.998"/>
      <point x="167.416" y="561.308"/>
      <point x="161" y="560.014" type="curve"/>
      <point x="161" y="581.999" type="line"/>
      <point x="198.168" y="597.132"/>
      <point x="233.458" y="613.979"/>
      <point x="261.145" y="640.042" type="curve" smooth="yes"/>
      <point x="264.373" y="643.151"/>
      <point x="268.473" y="644.135"/>
      <point x="272" y="644.135" type="curve" smooth="yes"/>
      <point x="280.076" y="644.135"/>
      <point x="290" y="638.288"/>
      <point x="290" y="627.382" type="curve" smooth="yes"/>
      <point x="290" y="43.6875" type="line" smooth="yes"/>
      <point x="290" y="32.1611"/>
      <point x="299.761" y="20"/>
    </contour>
  </outline>
</glyph>
<glyph name="two" format="1">
  <advance width="509"/>
  <unicode hex="0032"/>
  <outline>
    <contour>
      <point x="120.987" y="522.993" type="curve"/>
      <point x="103.089" y="537.455" type="line"/>
      <point x="106.016" y="542.726"/>
      <point x="157.04" y="642"/>
      <point x="279.538" y="642" type="curve" smooth="yes"/>
      <point x="386.443" y="642"/>
      <point x="447" y="592.771"/>
      <point x="447" y="510.295" type="curve" smooth="yes"/>
      <point x="447" y="449.816"/>
      <point x="392.982" y="383.968"/>
      <point x="306.979" y="279.566" type="curve" smooth="yes"/>
      <point x="235.351" y="195.126"/>
      <point x="160.385" y="96.7383"/>
      <point x="127.124" y="58" type="curve"/>
      <point x="369" y="58" type="line" smooth="yes"/>
      <point x="417.076" y="58"/>
      <point x="439.376" y="75.4727"/>
      <point x="448.318" y="104.088" type="curve" smooth="yes"/>
      <point x="450.095" y="109.771" type="line"/>
      <point x="468.565" y="105.704" type="line"/>
      <point x="425.879" y="0" type="line"/>
      <point x="36" y="0" type="line"/>
      <point x="36" y="42.5293" type="line"/>
      <point x="138.812" y="162.497"/>
      <point x="222.079" y="268.492"/>
      <point x="282.038" y="343.899" type="curve" smooth="yes"/>
      <point x="322.17" y="394.369"/>
      <point x="366.031" y="450.816"/>
      <point x="366.031" y="491.283" type="curve" smooth="yes"/>
      <point x="366.031" y="566.405"/>
      <point x="329.057" y="597"/>
      <point x="255.904" y="597" type="curve" smooth="yes"/>
      <point x="192.168" y="597"/>
      <point x="153.497" y="563.892"/>
    </contour>
  </outline>
</glyph>
<glyph name="three" format="1">
  <advance width="494"/>
  <unicode hex="0033"/>
  <outline>
    <contour>
      <point x="77.8809" y="514.22" type="curve"/>
      <point x="55.9209" y="529.179" type="line"/>
      <point x="58.4166" y="532.787"/>
      <point x="127.06" y="640"/>
      <point x="243.611" y="640" type="curve" smooth="yes"/>
      <point x="344.854" y="640"/>
      <point x="395" y="599.884"/>
      <point x="395" y="537.224" type="curve" smooth="yes"/>
      <point x="395" y="477.987"/>
      <point x="325.098" y="424.744"/>
      <point x="263.718" y="379.701" type="curve"/>
      <point x="359.733" y="370.653"/>
      <point x="447" y="297.072"/>
      <point x="447" y="197.573" type="curve" smooth="yes"/>
      <point x="447" y="72.1875"/>
      <point x="355.069" y="-7"/>
      <point x="199.722" y="-7" type="curve" smooth="yes"/>
      <point x="138.443" y="-7"/>
      <point x="49" y="13.6465"/>
      <point x="49" y="44" type="curve" smooth="yes"/>
      <point x="49" y="45.8613"/>
      <point x="49.2568" y="49.166"/>
      <point x="50.7393" y="52.1309" type="curve" smooth="yes"/>
      <point x="50.9844" y="52.6221" type="line"/>
      <point x="51.3037" y="53.0684" type="line" smooth="yes"/>
      <point x="55.8564" y="59.4414"/>
      <point x="61.209" y="68"/>
      <point x="76" y="68" type="curve" smooth="yes"/>
      <point x="87.9346" y="68"/>
      <point x="100.362" y="63.2285"/>
      <point x="113.222" y="53.584" type="curve"/>
      <point x="132.332" y="39.0234"/>
      <point x="166.913" y="19"/>
      <point x="199.723" y="19" type="curve" smooth="yes"/>
      <point x="298.535" y="19"/>
      <point x="373" y="91.2939"/>
      <point x="373" y="173.435" type="curve" smooth="yes"/>
      <point x="373" y="223.072"/>
      <point x="349.042" y="276.85"/>
      <point x="303.867" y="294.996" type="curve"/>
      <point x="275.474" y="306.195"/>
      <point x="245.788" y="308"/>
      <point x="216.889" y="308" type="curve" smooth="yes"/>
      <point x="178.025" y="308"/>
      <point x="136.82" y="284.891"/>
      <point x="123" y="284.891" type="curve" smooth="yes"/>
      <point x="113.934" y="284.891"/>
      <point x="106.186" y="288.996"/>
      <point x="106.186" y="296.615" type="curve" smooth="yes"/>
      <point x="106.186" y="301.897"/>
      <point x="113.916" y="307.562"/>
      <point x="113.976" y="307.608" type="curve"/>
      <point x="118.297" y="310.743"/>
      <point x="310.667" y="443.222"/>
      <point x="310.667" y="515.688" type="curve" smooth="yes"/>
      <point x="310.667" y="562.219"/>
      <point x="270.254" y="594"/>
      <point x="221.667" y="594" type="curve" smooth="yes"/>
      <point x="168.316" y="594"/>
      <point x="111.972" y="558.347"/>
    </contour>
  </outline>
</glyph>
<glyph name="four" format="1">
  <advance width="480"/>
  <unicode hex="0034"/>
  <outline>
    <contour>
      <point x="275.777" y="318.055" type="curve"/>
      <point x="275.777" y="516.425" type="line"/>
      <point x="225.937" y="450.547"/>
      <point x="166.517" y="371.09"/>
      <point x="120.593" y="318.937" type="curve"/>
      <point x="173.489" y="318.542"/>
      <point x="246.676" y="318.401"/>
    </contour>
    <contour>
      <point x="36.1475" y="301.039" type="curve"/>
      <point x="127.97" y="413.805"/>
      <point x="226.266" y="526.712"/>
      <point x="308.842" y="638" type="curve" smooth="yes"/>
      <point x="317.331" y="640.947"/>
      <point x="328.262" y="642"/>
      <point x="340.178" y="642" type="curve" smooth="yes"/>
      <point x="350.876" y="642"/>
      <point x="360.5" y="635.694"/>
      <point x="360.5" y="621.389" type="curve" smooth="yes"/>
      <point x="360.5" y="319.006" type="line"/>
      <point x="399.561" y="319.729"/>
      <point x="410.042" y="322.554"/>
      <point x="439.896" y="328.228" type="curve"/>
      <point x="437.225" y="317.225"/>
      <point x="435.5" y="308.388"/>
      <point x="435.5" y="299.426" type="curve" smooth="yes"/>
      <point x="435.5" y="288.159"/>
      <point x="437.168" y="279.429"/>
      <point x="438.399" y="271" type="curve"/>
      <point x="358.5" y="271" type="line"/>
      <point x="358.5" y="14.6221" type="line" smooth="yes"/>
      <point x="358.5" y="9.12988"/>
      <point x="355.761" y="0"/>
      <point x="345.5" y="0" type="curve" smooth="yes"/>
      <point x="293.5" y="0" type="line" smooth="yes"/>
      <point x="284.078" y="0"/>
      <point x="279.195" y="6.70117"/>
      <point x="279.195" y="12.6729" type="curve" smooth="yes"/>
      <point x="275.777" y="271" type="line"/>
      <point x="44.5" y="271" type="line" smooth="yes"/>
      <point x="38.0889" y="271"/>
      <point x="30.0146" y="276.118"/>
      <point x="30.0146" y="285.25" type="curve" smooth="yes"/>
      <point x="30.0146" y="290.936"/>
      <point x="32.4189" y="296.611"/>
    </contour>
  </outline>
</glyph>
<glyph name="five" format="1">
  <advance width="480"/>
  <unicode hex="0035"/>
  <outline>
    <contour>
      <point x="410.286" y="617.586" type="curve" smooth="yes"/>
      <point x="416.503" y="617.586"/>
      <point x="429.107" y="615.685"/>
      <point x="429.107" y="604.443" type="curve" smooth="yes"/>
      <point x="429.107" y="595.456"/>
      <point x="419.919" y="569.444"/>
      <point x="414.147" y="554.466" type="curve"/>
      <point x="131.766" y="554.466" type="line"/>
      <point x="90.7109" y="378.991" type="line"/>
      <point x="135.352" y="400.039"/>
      <point x="180.885" y="410"/>
      <point x="225.834" y="410" type="curve" smooth="yes"/>
      <point x="345.741" y="410"/>
      <point x="433.286" y="336.051"/>
      <point x="433.286" y="210.367" type="curve" smooth="yes"/>
      <point x="433.286" y="99.5342"/>
      <point x="339.406" y="-5"/>
      <point x="205.063" y="-5" type="curve" smooth="yes"/>
      <point x="156.528" y="-5"/>
      <point x="90.3447" y="3"/>
      <point x="39.3105" y="55.0752" type="curve"/>
      <point x="35.5146" y="58.8711"/>
      <point x="34.1025" y="63.8047"/>
      <point x="34.1025" y="68" type="curve" smooth="yes"/>
      <point x="34.1025" y="74.4336"/>
      <point x="40.6348" y="78.9873"/>
      <point x="45.2861" y="78.9873" type="curve" smooth="yes"/>
      <point x="48.4658" y="78.9873"/>
      <point x="52.2646" y="77.9209"/>
      <point x="55.2734" y="74.9121" type="curve"/>
      <point x="84.7373" y="44.5273"/>
      <point x="156.412" y="33"/>
      <point x="197.412" y="33" type="curve" smooth="yes"/>
      <point x="306.117" y="33"/>
      <point x="361.286" y="124.108"/>
      <point x="361.286" y="190.368" type="curve" smooth="yes"/>
      <point x="361.286" y="268.546"/>
      <point x="310.934" y="337"/>
      <point x="206.412" y="337" type="curve" smooth="yes"/>
      <point x="155.844" y="337"/>
      <point x="86.1348" y="314.599"/>
      <point x="29" y="279.031" type="curve"/>
      <point x="109.758" y="611" type="line"/>
      <point x="348.286" y="611" type="line" smooth="yes"/>
      <point x="371.366" y="611"/>
      <point x="392.574" y="617.586"/>
    </contour>
  </outline>
</glyph>
<glyph name="six" format="1">
  <advance width="556"/>
  <unicode hex="0036"/>
  <outline>
    <contour>
      <point x="433.188" y="615.465" type="curve" smooth="yes"/>
      <point x="433.188" y="608.264"/>
      <point x="429.126" y="599.929"/>
      <point x="418.809" y="597.128" type="curve" smooth="yes"/>
      <point x="384.297" y="588.467"/>
      <point x="328.883" y="567.527"/>
      <point x="276.897" y="533.624" type="curve" smooth="yes"/>
      <point x="181.956" y="471.705"/>
      <point x="138" y="364.545"/>
      <point x="138" y="256.754" type="curve" smooth="yes"/>
      <point x="138" y="157.935"/>
      <point x="182.028" y="21"/>
      <point x="283.246" y="21" type="curve" smooth="yes"/>
      <point x="373.713" y="21"/>
      <point x="429" y="90.2373"/>
      <point x="429" y="195.278" type="curve" smooth="yes"/>
      <point x="429" y="301.335"/>
      <point x="365.285" y="349.37"/>
      <point x="297.619" y="349.37" type="curve" smooth="yes"/>
      <point x="248.228" y="349.37"/>
      <point x="215.646" y="318.546"/>
      <point x="196.015" y="298.585" type="curve"/>
      <point x="191.137" y="293.678"/>
      <point x="185.928" y="291.859"/>
      <point x="181.705" y="291.859" type="curve" smooth="yes"/>
      <point x="172.016" y="291.859"/>
      <point x="169.896" y="302.147"/>
      <point x="169.896" y="307.255" type="curve" smooth="yes"/>
      <point x="169.896" y="311.517"/>
      <point x="171.216" y="315.793"/>
      <point x="173.832" y="319.718" type="curve"/>
      <point x="194.225" y="346.525"/>
      <point x="232.718" y="399.335"/>
      <point x="321.316" y="399.335" type="curve" smooth="yes"/>
      <point x="394.053" y="399.335"/>
      <point x="506" y="353.867"/>
      <point x="506" y="207.367" type="curve" smooth="yes"/>
      <point x="506" y="94.8271"/>
      <point x="420.161" y="-8"/>
      <point x="282.176" y="-8" type="curve" smooth="yes"/>
      <point x="149.903" y="-8"/>
      <point x="53" y="114.655"/>
      <point x="53" y="252.348" type="curve" smooth="yes"/>
      <point x="53" y="409.751"/>
      <point x="140.806" y="504.709"/>
      <point x="212.317" y="556.298" type="curve" smooth="yes"/>
      <point x="269.68" y="596.647"/>
      <point x="369.63" y="626.893"/>
      <point x="420.601" y="636.858" type="curve" smooth="yes"/>
      <point x="425.581" y="637.875" type="line"/>
      <point x="428.089" y="633.453" type="line" smooth="yes"/>
      <point x="428.183" y="633.292"/>
      <point x="433.188" y="625.938"/>
    </contour>
  </outline>
</glyph>
<glyph name="seven" format="1">
  <advance width="484"/>
  <unicode hex="0037"/>
  <outline>
    <contour>
      <point x="366.423" y="558" type="curve"/>
      <point x="97.7607" y="558" type="line" smooth="yes"/>
      <point x="81.9673" y="558"/>
      <point x="76.2589" y="546.43"/>
      <point x="74.3975" y="542" type="curve"/>
      <point x="68.7607" y="542" type="line" smooth="yes"/>
      <point x="61.2363" y="542"/>
      <point x="59.8867" y="548.977"/>
      <point x="59.8867" y="548.977" type="curve" smooth="yes"/>
      <point x="60.085" y="555.694" type="line" smooth="yes"/>
      <point x="63.2432" y="572.608"/>
      <point x="66.9385" y="591.763"/>
      <point x="70.2617" y="607.6" type="curve" smooth="yes"/>
      <point x="71.8379" y="615.11"/>
      <point x="73.1318" y="622"/>
      <point x="82.7607" y="622" type="curve" smooth="yes"/>
      <point x="435.761" y="622" type="line" smooth="yes"/>
      <point x="448.178" y="622"/>
      <point x="451.751" y="621.14"/>
      <point x="451.751" y="617.461" type="curve" smooth="yes"/>
      <point x="451.751" y="614.694"/>
      <point x="449.73" y="609.899"/>
      <point x="447.933" y="606.093" type="curve"/>
      <point x="444.6" y="599.59" type="line" smooth="yes"/>
      <point x="321.37" y="414.295"/>
      <point x="203.739" y="169.026"/>
      <point x="175.785" y="0" type="curve"/>
      <point x="99.6201" y="0" type="line"/>
      <point x="125.256" y="164.939"/>
      <point x="254.295" y="407.516"/>
    </contour>
  </outline>
</glyph>
<glyph name="eight" format="1">
  <advance width="503"/>
  <unicode hex="0038"/>
  <outline>
    <contour>
      <point x="130" y="154" type="curve" smooth="yes"/>
      <point x="130" y="71.4863"/>
      <point x="179.716" y="20"/>
      <point x="256.272" y="20" type="curve" smooth="yes"/>
      <point x="331.126" y="20"/>
      <point x="384" y="88.7324"/>
      <point x="384" y="149" type="curve" smooth="yes"/>
      <point x="384" y="214.286"/>
      <point x="311.775" y="278.722"/>
      <point x="236.956" y="323.278" type="curve"/>
      <point x="160.992" y="261.599"/>
      <point x="130" y="226.119"/>
    </contour>
    <contour>
      <point x="156" y="514" type="curve" smooth="yes"/>
      <point x="156" y="445.163"/>
      <point x="203.346" y="428.355"/>
      <point x="261.21" y="392.05" type="curve"/>
      <point x="299.974" y="426.918"/>
      <point x="360" y="466.781"/>
      <point x="360" y="511" type="curve" smooth="yes"/>
      <point x="360" y="556.678"/>
      <point x="320.907" y="619"/>
      <point x="256.272" y="619" type="curve" smooth="yes"/>
      <point x="171.307" y="619"/>
      <point x="156" y="557.396"/>
    </contour>
    <contour>
      <point x="425" y="513.779" type="curve" smooth="yes"/>
      <point x="425" y="449.196"/>
      <point x="346.373" y="402.048"/>
      <point x="300.516" y="366.468" type="curve"/>
      <point x="384.285" y="306.949"/>
      <point x="457" y="247.122"/>
      <point x="457" y="146.674" type="curve" smooth="yes"/>
      <point x="457" y="76.2744"/>
      <point x="374.197" y="-8"/>
      <point x="255.182" y="-8" type="curve" smooth="yes"/>
      <point x="155.981" y="-8"/>
      <point x="49" y="51.0088"/>
      <point x="49" y="149.61" type="curve" smooth="yes"/>
      <point x="49" y="228.72"/>
      <point x="113.25" y="280.471"/>
      <point x="191.244" y="340.187" type="curve"/>
      <point x="133.35" y="385.062"/>
      <point x="81" y="427.857"/>
      <point x="81" y="517.737" type="curve" smooth="yes"/>
      <point x="81" y="564.459"/>
      <point x="119.382" y="643"/>
      <point x="256.273" y="643" type="curve" smooth="yes"/>
      <point x="345.469" y="643"/>
      <point x="425" y="587.563"/>
    </contour>
  </outline>
</glyph>
<glyph name="nine" format="1">
  <advance width="534"/>
  <unicode hex="0039"/>
  <outline>
    <contour>
      <point x="122.908" y="6.59473" type="curve" smooth="yes"/>
      <point x="122.908" y="13.9043"/>
      <point x="127.551" y="21.1904"/>
      <point x="136.905" y="23.8799" type="curve" smooth="yes"/>
      <point x="168.407" y="34.1465"/>
      <point x="213.185" y="58.21"/>
      <point x="263.622" y="94.1387" type="curve"/>
      <point x="359.039" y="159.376"/>
      <point x="404" y="256.771"/>
      <point x="404" y="387.179" type="curve" smooth="yes"/>
      <point x="404" y="520.062"/>
      <point x="358.506" y="612"/>
      <point x="250.954" y="612" type="curve" smooth="yes"/>
      <point x="179.375" y="612"/>
      <point x="126" y="556.327"/>
      <point x="126" y="457.396" type="curve" smooth="yes"/>
      <point x="126" y="364.255"/>
      <point x="177.274" y="291.267"/>
      <point x="235.114" y="291.267" type="curve" smooth="yes"/>
      <point x="291.262" y="291.267"/>
      <point x="331.917" y="322.31"/>
      <point x="351.005" y="343.511" type="curve" smooth="yes"/>
      <point x="351.128" y="343.648" type="line"/>
      <point x="351.26" y="343.778" type="line" smooth="yes"/>
      <point x="355.427" y="348.007"/>
      <point x="359.831" y="350.932"/>
      <point x="364.964" y="350.932" type="curve" smooth="yes"/>
      <point x="370.728" y="350.932"/>
      <point x="376.647" y="346.146"/>
      <point x="376.647" y="339.382" type="curve" smooth="yes"/>
      <point x="376.647" y="333.793"/>
      <point x="374.333" y="328.688"/>
      <point x="371.347" y="324.207" type="curve"/>
      <point x="349.825" y="293.192"/>
      <point x="309.434" y="246"/>
      <point x="220.701" y="246" type="curve" smooth="yes"/>
      <point x="146.994" y="246"/>
      <point x="51" y="299.489"/>
      <point x="51" y="445.465" type="curve" smooth="yes"/>
      <point x="51" y="559.444"/>
      <point x="145.249" y="641"/>
      <point x="252.034" y="641" type="curve" smooth="yes"/>
      <point x="395.303" y="641"/>
      <point x="479" y="553.359"/>
      <point x="479" y="379.581" type="curve" smooth="yes"/>
      <point x="479" y="200.604"/>
      <point x="387.676" y="125.78"/>
      <point x="319.453" y="73.666" type="curve"/>
      <point x="264.365" y="33.7295"/>
      <point x="182.151" y="3.33496"/>
      <point x="133.767" y="-8.77344" type="curve" smooth="yes"/>
      <point x="128.316" y="-10.1953" type="line"/>
      <point x="125.629" y="-4.91425"/>
      <point x="122.908" y="-0.146839"/>
    </contour>
  </outline>
</glyph>
<glyph name="equal" format="1">
  <advance width="401"/>
  <unicode hex="003D"/>
  <outline>
    <contour>
      <point x="73.7864" y="319.359" type="line" smooth="yes"/>
      <point x="61.757" y="323.369"/>
      <point x="60" y="339.216"/>
      <point x="60" y="350" type="curve" smooth="yes"/>
      <point x="60" y="359.826"/>
      <point x="61.8522" y="377"/>
      <point x="76" y="377" type="curve" smooth="yes"/>
      <point x="329" y="377" type="line" smooth="yes"/>
      <point x="343.676" y="377"/>
      <point x="344" y="355.131"/>
      <point x="344" y="347" type="curve" smooth="yes"/>
      <point x="344" y="340.266"/>
      <point x="343.497" y="319"/>
      <point x="329" y="319" type="curve" smooth="yes"/>
      <point x="74.8641" y="319" type="line"/>
    </contour>
    <contour>
      <point x="73.7864" y="219.359" type="line" smooth="yes"/>
      <point x="61.757" y="223.369"/>
      <point x="60" y="239.216"/>
      <point x="60" y="250" type="curve" smooth="yes"/>
      <point x="60" y="259.826"/>
      <point x="61.8522" y="277"/>
      <point x="76" y="277" type="curve" smooth="yes"/>
      <point x="329" y="277" type="line" smooth="yes"/>
      <point x="343.676" y="277"/>
      <point x="344" y="255.131"/>
      <point x="344" y="247" type="curve" smooth="yes"/>
      <point x="344" y="240.266"/>
      <point x="343.497" y="219"/>
      <point x="329" y="219" type="curve" smooth="yes"/>
      <point x="74.8641" y="219" type="line"/>
    </contour>
  </outline>
</glyph>
<glyph name="question" format="1">
  <advance width="462"/>
  <unicode hex="003F"/>
  <outline>
    <contour>
      <point x="182.042" y="199.238" type="line" smooth="yes"/>
      <point x="176.968" y="245.6"/>
      <point x="167.118" y="340.269"/>
      <point x="167.117" y="340.276" type="curve" smooth="yes"/>
      <point x="167.08" y="340.637" type="line"/>
      <point x="167.08" y="341" type="line" smooth="yes"/>
      <point x="167.08" y="395.137"/>
      <point x="218.827" y="433.203"/>
      <point x="254.313" y="465.199" type="curve" smooth="yes"/>
      <point x="316.651" y="521.406"/>
      <point x="350" y="535.983"/>
      <point x="350" y="593" type="curve" smooth="yes"/>
      <point x="350" y="654.892"/>
      <point x="289.795" y="705"/>
      <point x="219.444" y="705" type="curve" smooth="yes"/>
      <point x="159.109" y="705"/>
      <point x="125.425" y="655.073"/>
      <point x="121.271" y="636.448" type="curve" smooth="yes"/>
      <point x="115.26" y="609.505"/>
      <point x="97.4189" y="594"/>
      <point x="77.4443" y="594" type="curve" smooth="yes"/>
      <point x="55.3252" y="594"/>
      <point x="41.8008" y="611.641"/>
      <point x="41.8008" y="635" type="curve" smooth="yes"/>
      <point x="41.8008" y="694.398"/>
      <point x="145.646" y="742.333"/>
      <point x="223.444" y="742.333" type="curve" smooth="yes"/>
      <point x="311.029" y="742.333"/>
      <point x="411.444" y="682.974"/>
      <point x="411.444" y="569" type="curve" smooth="yes"/>
      <point x="411.444" y="489.757"/>
      <point x="372.761" y="468.55"/>
      <point x="318.279" y="426.461" type="curve" smooth="yes"/>
      <point x="282.442" y="398.774"/>
      <point x="248.677" y="360.31"/>
      <point x="247.988" y="348.589" type="curve"/>
      <point x="247.988" y="348.589"/>
      <point x="243" y="212.576"/>
      <point x="243" y="200" type="curve" smooth="yes"/>
      <point x="243" y="193" type="line"/>
      <point x="182.724" y="193" type="line"/>
    </contour>
    <contour>
      <point x="157.444" y="47" type="curve" smooth="yes"/>
      <point x="157.444" y="78.9433"/>
      <point x="183.668" y="105"/>
      <point x="216.444" y="105" type="curve" smooth="yes"/>
      <point x="248.326" y="105"/>
      <point x="274.444" y="78.8812"/>
      <point x="274.444" y="47" type="curve" smooth="yes"/>
      <point x="274.444" y="15.1188"/>
      <point x="248.326" y="-11"/>
      <point x="216.444" y="-11" type="curve" smooth="yes"/>
      <point x="183.669" y="-11"/>
      <point x="157.444" y="15.0566"/>
    </contour>
  </outline>
</glyph>
<glyph name="A" format="1">
  <advance width="795"/>
  <unicode hex="0041"/>
  <outline>
    <contour>
      <point x="94.5889" y="64.1318" type="curve"/>
      <point x="370.123" y="708.659" type="line"/>
      <point x="371.52" y="709.753" type="line" smooth="yes"/>
      <point x="385.367" y="720.6"/>
      <point x="388.04" y="718.687"/>
      <point x="399.423" y="728.493" type="curve" smooth="yes"/>
      <point x="407.179" y="735.309" type="line"/>
      <point x="697.399" y="45.5391" type="line"/>
      <point x="704.77" y="30.608"/>
      <point x="715.909" y="20"/>
      <point x="735" y="20" type="curve" smooth="yes"/>
      <point x="742" y="20" type="line"/>
      <point x="742" y="0" type="line"/>
      <point x="541" y="0" type="line"/>
      <point x="541" y="20" type="line"/>
      <point x="548" y="20" type="line" smooth="yes"/>
      <point x="570.431" y="20"/>
      <point x="593.481" y="31.9729"/>
      <point x="593.481" y="53.3545" type="curve" smooth="yes"/>
      <point x="593.481" y="58.4668"/>
      <point x="593.161" y="64.0752"/>
      <point x="590.525" y="70.3125" type="curve" smooth="yes"/>
      <point x="488.86" y="305" type="line"/>
      <point x="255.412" y="305" type="line" smooth="yes"/>
      <point x="254.286" y="305"/>
      <point x="254.262" y="304.868"/>
      <point x="254.262" y="304.868" type="curve"/>
      <point x="254.069" y="304.694"/>
      <point x="253.338" y="303.593"/>
      <point x="252.287" y="301.204" type="curve" smooth="yes"/>
      <point x="155.447" y="77.0742" type="line"/>
      <point x="149.562" y="63.875"/>
      <point x="147.477" y="54.7002"/>
      <point x="147.477" y="48.5303" type="curve" smooth="yes"/>
      <point x="147.477" y="30.116"/>
      <point x="170.463" y="20"/>
      <point x="190" y="20" type="curve" smooth="yes"/>
      <point x="197" y="20" type="line"/>
      <point x="197" y="0" type="line"/>
      <point x="40" y="0" type="line"/>
      <point x="40" y="20" type="line"/>
      <point x="47" y="20" type="line" smooth="yes"/>
      <point x="78.5342" y="20"/>
      <point x="81.8421" y="37.5791"/>
    </contour>
    <contour>
      <point x="372.107" y="585.541" type="line"/>
      <point x="272.264" y="348" type="line"/>
      <point x="470.952" y="348" type="line"/>
    </contour>
  </outline>
</glyph>
<glyph name="C" format="1">
  <advance width="799"/>
  <unicode hex="0043"/>
  <outline>
    <contour>
      <point x="433.352" y="742.001" type="curve" smooth="yes"/>
      <point x="575.344" y="742.001"/>
      <point x="645.116" y="657.256"/>
      <point x="670" y="657.256" type="curve" smooth="yes"/>
      <point x="689.169" y="657.256"/>
      <point x="685.917" y="683.428"/>
      <point x="701.507" y="683.428" type="curve" smooth="yes"/>
      <point x="708.177" y="683.428"/>
      <point x="713.846" y="676.546"/>
      <point x="713.999" y="665.14" type="curve" smooth="yes"/>
      <point x="716.685" y="464.796" type="line"/>
      <point x="716.334" y="459.896"/>
      <point x="712.397" y="453.322"/>
      <point x="706.036" y="453.322" type="curve" smooth="yes"/>
      <point x="701.416" y="453.322"/>
      <point x="696.576" y="455.227"/>
      <point x="694.579" y="463.323" type="curve" smooth="yes"/>
      <point x="670.114" y="562.456"/>
      <point x="591.583" y="700.77"/>
      <point x="418.884" y="700.77" type="curve" smooth="yes"/>
      <point x="229.526" y="700.77"/>
      <point x="158" y="519.981"/>
      <point x="158" y="384.646" type="curve" smooth="yes"/>
      <point x="158" y="62.6123"/>
      <point x="348.674" y="36"/>
      <point x="421.984" y="36" type="curve" smooth="yes"/>
      <point x="597.329" y="36"/>
      <point x="687.796" y="175.227"/>
      <point x="694.366" y="190.104" type="curve"/>
      <point x="722.599" y="182.664" type="line" smooth="yes"/>
      <point x="722.032" y="181.06"/>
      <point x="653.921" y="-10"/>
      <point x="414.001" y="-10" type="curve" smooth="yes"/>
      <point x="294.809" y="-10"/>
      <point x="55" y="53.6748"/>
      <point x="55" y="352.256" type="curve" smooth="yes"/>
      <point x="55" y="552.174"/>
      <point x="163.037" y="742.001"/>
    </contour>
  </outline>
</glyph>
<glyph name="F" format="1">
  <advance width="607"/>
  <unicode hex="0046"/>
  <outline>
    <contour>
      <point x="281.731" y="705.333" type="curve"/>
      <point x="260.945" y="705.333"/>
      <point x="250.587" y="704.394"/>
      <point x="229.578" y="702.064" type="curve" smooth="yes"/>
      <point x="213.177" y="700.247"/>
      <point x="206.699" y="689.54"/>
      <point x="206.699" y="679.388" type="curve"/>
      <point x="203.863" y="396.402" type="line"/>
      <point x="235.273" y="394.224"/>
      <point x="274.152" y="392"/>
      <point x="304.946" y="392" type="curve" smooth="yes"/>
      <point x="343.397" y="392"/>
      <point x="374.107" y="394.881"/>
      <point x="404.985" y="397.588" type="curve"/>
      <point x="424.119" y="402.141"/>
      <point x="431.938" y="426.886"/>
      <point x="433.324" y="450.521" type="curve"/>
      <point x="450.121" y="450.521" type="line"/>
      <point x="450.121" y="299.025" type="line"/>
      <point x="433.073" y="299.025" type="line"/>
      <point x="428.897" y="322.278"/>
      <point x="423.229" y="347.314"/>
      <point x="400.532" y="352.61" type="curve"/>
      <point x="367.366" y="355.612"/>
      <point x="336.999" y="359"/>
      <point x="300.967" y="359" type="curve" smooth="yes"/>
      <point x="268.351" y="359"/>
      <point x="229.301" y="356.355"/>
      <point x="201.564" y="354.042" type="curve"/>
      <point x="201.197" y="318.636" type="line"/>
      <point x="206.824" y="57.4346" type="line" smooth="yes"/>
      <point x="206.942" y="48.4736"/>
      <point x="210.716" y="27.9316"/>
      <point x="224.879" y="23.3262" type="curve" smooth="yes"/>
      <point x="235.003" y="20.0342"/>
      <point x="239.733" y="19.4512"/>
      <point x="252.137" y="19.2949" type="curve" smooth="yes"/>
      <point x="259.047" y="19.208" type="line"/>
      <point x="259.047" y="0" type="line"/>
      <point x="58.0029" y="0" type="line"/>
      <point x="58.0029" y="19.2227" type="line"/>
      <point x="64.9102" y="19.3125" type="line" smooth="yes"/>
      <point x="72.8555" y="19.415"/>
      <point x="78.5361" y="20.0977"/>
      <point x="85.9854" y="21.5771" type="curve" smooth="yes"/>
      <point x="102.149" y="24.7861"/>
      <point x="109.248" y="44.0312"/>
      <point x="109.258" y="53.4102" type="curve" smooth="yes"/>
      <point x="109.258" y="53.7324" type="line"/>
      <point x="109.289" y="54.0537" type="line" smooth="yes"/>
      <point x="110.97" y="71.3701"/>
      <point x="111.267" y="239.23"/>
      <point x="111.267" y="395.42" type="curve" smooth="yes"/>
      <point x="111.267" y="526.376"/>
      <point x="110.241" y="675.857"/>
      <point x="110.241" y="675.857" type="curve" smooth="yes"/>
      <point x="110.241" y="685.568"/>
      <point x="102.216" y="705.456"/>
      <point x="85.9805" y="708.685" type="curve" smooth="yes"/>
      <point x="74.8789" y="710.893"/>
      <point x="70.7607" y="710.888"/>
      <point x="58" y="711.022" type="curve"/>
      <point x="58" y="730.333" type="line"/>
      <point x="533.201" y="730.333" type="line"/>
      <point x="551.963" y="575.829" type="line"/>
      <point x="532.23" y="577.662" type="line"/>
      <point x="519.478" y="639.219"/>
      <point x="496.823" y="679.388"/>
      <point x="434.959" y="694.341" type="curve" smooth="yes"/>
      <point x="392.733" y="704.411"/>
      <point x="344.343" y="704.99"/>
    </contour>
  </outline>
</glyph>
<glyph name="I" format="1">
  <advance width="305"/>
  <unicode hex="0049"/>
  <outline>
    <contour>
      <point x="202.777" y="55.1211" type="curve" smooth="yes"/>
      <point x="203.464" y="36.5125"/>
      <point x="224.151" y="19.6982"/>
      <point x="248.094" y="19.3838" type="curve" smooth="yes"/>
      <point x="255" y="19.292" type="line"/>
      <point x="255" y="0" type="line"/>
      <point x="53.9502" y="0" type="line"/>
      <point x="53.9502" y="19.292" type="line"/>
      <point x="60.8564" y="19.3838" type="line" smooth="yes"/>
      <point x="84.667" y="19.6973"/>
      <point x="105.95" y="36.1599"/>
      <point x="105.95" y="54.9844" type="curve" smooth="yes"/>
      <point x="107.202" y="168.009"/>
      <point x="107.987" y="280.738"/>
      <point x="107.987" y="393.458" type="curve" smooth="yes"/>
      <point x="107.987" y="487.687"/>
      <point x="107.454" y="581.72"/>
      <point x="106.194" y="675.886" type="curve" smooth="yes"/>
      <point x="106.194" y="694.046"/>
      <point x="84.459" y="710.716"/>
      <point x="60.8604" y="711.021" type="curve" smooth="yes"/>
      <point x="53.9531" y="711.11" type="line"/>
      <point x="53.9531" y="730" type="line"/>
      <point x="254.997" y="730" type="line"/>
      <point x="254.997" y="711.11" type="line"/>
      <point x="248.09" y="711.021" type="line" smooth="yes"/>
      <point x="224.807" y="710.72"/>
      <point x="203.412" y="694.258"/>
      <point x="202.772" y="676.74" type="curve" smooth="yes"/>
      <point x="200.743" y="582.52"/>
      <point x="199.915" y="487.963"/>
      <point x="199.915" y="393.458" type="curve" smooth="yes"/>
      <point x="199.915" y="280.801"/>
      <point x="201.086" y="167.833"/>
    </contour>
  </outline>
</glyph>
<glyph name="K" format="1">
  <advance width="630"/>
  <unicode hex="004B"/>
  <outline>
    <contour>
      <point x="422.14" y="45.4512" type="curve" smooth="yes"/>
      <point x="422.14" y="54.5928"/>
      <point x="413.264" y="70"/>
      <point x="403.462" y="84" type="curve" smooth="yes"/>
      <point x="325.264" y="193"/>
      <point x="213.21" y="336.427"/>
      <point x="197.572" y="358.777" type="curve"/>
      <point x="187.543" y="349.038"/>
      <point x="175.256" y="343.219"/>
      <point x="165.317" y="339.856" type="curve"/>
      <point x="168.264" y="56.0723" type="line" smooth="yes"/>
      <point x="168.466" y="36.6611"/>
      <point x="189.701" y="19"/>
      <point x="213.264" y="19" type="curve" smooth="yes"/>
      <point x="220.264" y="19" type="line"/>
      <point x="220.264" y="0" type="line"/>
      <point x="19.2637" y="0" type="line"/>
      <point x="19.2637" y="19" type="line"/>
      <point x="26.2637" y="19" type="line" smooth="yes"/>
      <point x="50.6357" y="19"/>
      <point x="71.2637" y="36.8633"/>
      <point x="71.2637" y="55.5215" type="curve" smooth="yes"/>
      <point x="73.0986" y="171.29"/>
      <point x="73.4268" y="286.765"/>
      <point x="73.4268" y="402.222" type="curve" smooth="yes"/>
      <point x="73.4268" y="493.436"/>
      <point x="72.5" y="584.337"/>
      <point x="71.2637" y="675.43" type="curve" smooth="yes"/>
      <point x="71.0234" y="693.164"/>
      <point x="50.3262" y="711"/>
      <point x="26.2637" y="711" type="curve" smooth="yes"/>
      <point x="19.2637" y="711" type="line"/>
      <point x="19.2637" y="730" type="line"/>
      <point x="220.264" y="730" type="line"/>
      <point x="220.264" y="711" type="line"/>
      <point x="213.264" y="711" type="line" smooth="yes"/>
      <point x="189.412" y="711"/>
      <point x="168.264" y="693.302"/>
      <point x="168.264" y="675.952" type="curve" smooth="yes"/>
      <point x="164.404" y="391.321" type="line"/>
      <point x="179.884" y="398.572"/>
      <point x="193.371" y="410.476"/>
      <point x="215.678" y="440.219" type="curve"/>
      <point x="391.692" y="653.238" type="line" smooth="yes"/>
      <point x="406.043" y="672.099"/>
      <point x="410.243" y="683.513"/>
      <point x="410.243" y="688.752" type="curve" smooth="yes"/>
      <point x="410.243" y="699.8"/>
      <point x="384.439" y="710"/>
      <point x="373.264" y="710" type="curve" smooth="yes"/>
      <point x="366.264" y="710" type="line"/>
      <point x="366.264" y="730" type="line"/>
      <point x="530.264" y="730" type="line"/>
      <point x="530.264" y="710" type="line"/>
      <point x="523.264" y="710" type="line" smooth="yes"/>
      <point x="492.116" y="710"/>
      <point x="484.085" y="691.277"/>
      <point x="465.881" y="667.502" type="curve" smooth="yes"/>
      <point x="275.235" y="425.736" type="line"/>
      <point x="309.575" y="384.591" type="line"/>
      <point x="309.696" y="384.428" type="line" smooth="yes"/>
      <point x="406.12" y="248.273"/>
      <point x="497.198" y="109.085"/>
      <point x="540.94" y="49.6836" type="curve"/>
      <point x="554.264" y="32"/>
      <point x="573.396" y="20"/>
      <point x="584.264" y="20" type="curve" smooth="yes"/>
      <point x="591.264" y="20" type="line"/>
      <point x="591.264" y="0" type="line"/>
      <point x="390.264" y="0" type="line"/>
      <point x="390.264" y="20" type="line"/>
      <point x="414.924" y="20"/>
      <point x="422.14" y="32.5068"/>
    </contour>
  </outline>
</glyph>
<glyph name="M" format="1">
  <advance width="873"/>
  <unicode hex="004D"/>
  <outline>
    <contour>
      <point x="755.909" y="54.5742" type="curve" smooth="yes"/>
      <point x="756.295" y="36.1377"/>
      <point x="777.546" y="19.6699"/>
      <point x="801.219" y="19.3838" type="curve" smooth="yes"/>
      <point x="808.132" y="19.2988" type="line"/>
      <point x="808.132" y="0" type="line"/>
      <point x="607.082" y="0" type="line"/>
      <point x="607.082" y="18.8535" type="line"/>
      <point x="614.988" y="18.9463" type="line" smooth="yes"/>
      <point x="638.978" y="19.2705"/>
      <point x="659.048" y="36.873"/>
      <point x="659.334" y="55.626" type="curve" smooth="yes"/>
      <point x="660.309" y="119.847"/>
      <point x="661.725" y="184.042"/>
      <point x="661.725" y="248" type="curve" smooth="yes"/>
      <point x="661.725" y="328.926"/>
      <point x="661.732" y="412.956"/>
      <point x="661.732" y="495" type="curve" smooth="yes"/>
      <point x="661.732" y="526.796"/>
      <point x="661.666" y="558.654"/>
      <point x="661.495" y="589.321" type="curve"/>
      <point x="425.306" y="138.829" type="line"/>
      <point x="422.088" y="132.671"/>
      <point x="412.384" y="118.276"/>
      <point x="401.993" y="118.276" type="curve" smooth="yes"/>
      <point x="394.794" y="118.276"/>
      <point x="389.693" y="123.756"/>
      <point x="386.13" y="130.999" type="curve" smooth="yes"/>
      <point x="386.13" y="130.999"/>
      <point x="211.477" y="485.632"/>
      <point x="162.151" y="588.842" type="curve"/>
      <point x="144.093" y="55.0693" type="line"/>
      <point x="145.827" y="36.4074"/>
      <point x="165.39" y="20.2705"/>
      <point x="189.378" y="19.9463" type="curve" smooth="yes"/>
      <point x="196.284" y="19.8535" type="line"/>
      <point x="196.284" y="0" type="line"/>
      <point x="37.2783" y="0" type="line"/>
      <point x="37.2783" y="19.292" type="line"/>
      <point x="44.1846" y="19.3838" type="line" smooth="yes"/>
      <point x="69.4902" y="19.7168"/>
      <point x="88.7061" y="36.1543"/>
      <point x="89.5234" y="56.6875" type="curve" smooth="yes"/>
      <point x="97.6689" y="260.612"/>
      <point x="104.75" y="466.241"/>
      <point x="109.536" y="673.082" type="curve"/>
      <point x="109.538" y="673.361"/>
      <point x="109.538" y="673.789"/>
      <point x="109.538" y="674.078" type="curve" smooth="yes"/>
      <point x="109.538" y="693.176"/>
      <point x="88.2148" y="710.709"/>
      <point x="64.1875" y="711.022" type="curve" smooth="yes"/>
      <point x="57.2803" y="711.112" type="line"/>
      <point x="57.2803" y="730" type="line"/>
      <point x="207.641" y="730" type="line"/>
      <point x="440.707" y="272.253" type="line"/>
      <point x="674.948" y="729.998" type="line"/>
      <point x="808.129" y="729.998" type="line"/>
      <point x="808.129" y="711.104" type="line"/>
      <point x="801.214" y="711.021" type="line" smooth="yes"/>
      <point x="777.878" y="710.741"/>
      <point x="756.004" y="695.323"/>
      <point x="755.907" y="676.873" type="curve" smooth="yes"/>
      <point x="755.097" y="615.802"/>
      <point x="752.677" y="555.087"/>
      <point x="752.677" y="494.521" type="curve" smooth="yes"/>
      <point x="752.677" y="451.723"/>
      <point x="752.608" y="409.123"/>
      <point x="752.608" y="366.664" type="curve" smooth="yes"/>
      <point x="752.608" y="262.076"/>
      <point x="753.025" y="158.336"/>
    </contour>
  </outline>
</glyph>
<glyph name="N" format="1">
  <advance width="841"/>
  <unicode hex="004E"/>
  <outline>
    <contour>
      <point x="738.361" y="676.905" type="curve" smooth="yes"/>
      <point x="736.477" y="584.365"/>
      <point x="735.752" y="492.911"/>
      <point x="735.752" y="400.251" type="curve" smooth="yes"/>
      <point x="735.752" y="269.146"/>
      <point x="737.233" y="138.062"/>
      <point x="739" y="6.74805" type="curve"/>
      <point x="739" y="-3.27148"/>
      <point x="730.65" y="-8.99023"/>
      <point x="723" y="-8.99023" type="curve" smooth="yes"/>
      <point x="717.509" y="-8.99023"/>
      <point x="714.627" y="-6.62719"/>
      <point x="712" y="-4" type="curve" smooth="yes"/>
      <point x="704" y="4" type="line" smooth="yes"/>
      <point x="520.468" y="210.897"/>
      <point x="338.653" y="404.021"/>
      <point x="152.829" y="607.279" type="curve"/>
      <point x="152.79" y="557.426"/>
      <point x="151.778" y="510.642"/>
      <point x="151.778" y="462" type="curve" smooth="yes"/>
      <point x="151.778" y="361.999"/>
      <point x="151.832" y="262.059"/>
      <point x="151.832" y="162" type="curve" smooth="yes"/>
      <point x="151.832" y="126.437"/>
      <point x="152.825" y="90.4229"/>
      <point x="153.807" y="55.123" type="curve" smooth="yes"/>
      <point x="154.317" y="36.7566"/>
      <point x="174.989" y="19.2617"/>
      <point x="199.038" y="18.9463" type="curve" smooth="yes"/>
      <point x="206.16" y="18.8535" type="line"/>
      <point x="206.16" y="0" type="line"/>
      <point x="44" y="0" type="line"/>
      <point x="44" y="19.292" type="line"/>
      <point x="50.9062" y="19.3838" type="line" smooth="yes"/>
      <point x="75.6895" y="19.71"/>
      <point x="96.2402" y="36.2266"/>
      <point x="96.2402" y="56.4551" type="curve" smooth="yes"/>
      <point x="97.873" y="398.75" type="line"/>
      <point x="96.2578" y="673.939" type="line" smooth="yes"/>
      <point x="95.9955" y="693.906"/>
      <point x="75.6953" y="710.699"/>
      <point x="50.9092" y="711.022" type="curve" smooth="yes"/>
      <point x="44.002" y="711.112" type="line"/>
      <point x="44.002" y="730" type="line"/>
      <point x="168.133" y="730" type="line"/>
      <point x="682.066" y="170.81" type="line"/>
      <point x="682.066" y="340.894"/>
      <point x="681.751" y="502.72"/>
      <point x="681.751" y="675.009" type="curve" smooth="yes"/>
      <point x="681.751" y="693.828"/>
      <point x="660.116" y="710.142"/>
      <point x="636.299" y="710.461" type="curve" smooth="yes"/>
      <point x="629.392" y="710.553" type="line"/>
      <point x="629.392" y="730" type="line"/>
      <point x="790.887" y="730" type="line"/>
      <point x="790.887" y="711.106" type="line"/>
      <point x="783.979" y="711.016" type="line" smooth="yes"/>
      <point x="761.043" y="710.717"/>
      <point x="739.543" y="694.438"/>
    </contour>
  </outline>
</glyph>
<glyph name="P" format="1">
  <advance width="568"/>
  <unicode hex="0050"/>
  <outline>
    <contour>
      <point x="166.505" y="53.4375" type="curve" smooth="yes"/>
      <point x="166.702" y="35.7402"/>
      <point x="188.578" y="19.6211"/>
      <point x="210.249" y="19.3506" type="curve" smooth="yes"/>
      <point x="217.524" y="19.2598" type="line"/>
      <point x="217.524" y="0" type="line"/>
      <point x="17.1318" y="0" type="line"/>
      <point x="17.1318" y="19.292" type="line"/>
      <point x="24.0381" y="19.3838" type="line" smooth="yes"/>
      <point x="47.2314" y="19.6885"/>
      <point x="69.373" y="36.6103"/>
      <point x="69.373" y="53.8066" type="curve" smooth="yes"/>
      <point x="70.9727" y="170.92"/>
      <point x="71.2793" y="284.685"/>
      <point x="71.2793" y="400.326" type="curve" smooth="yes"/>
      <point x="71.2793" y="487.4"/>
      <point x="69.4941" y="582.247"/>
      <point x="69.4941" y="669.177" type="curve" smooth="yes"/>
      <point x="69.4941" y="697.557"/>
      <point x="46.3193" y="710.779"/>
      <point x="25.042" y="711.021" type="curve" smooth="yes"/>
      <point x="17.1348" y="711.111" type="line"/>
      <point x="17.1348" y="730.392" type="line"/>
      <point x="247.759" y="732" type="line" smooth="yes"/>
      <point x="407.402" y="732"/>
      <point x="532.388" y="671.053"/>
      <point x="532.388" y="503.468" type="curve" smooth="yes"/>
      <point x="532.388" y="347.451"/>
      <point x="380.828" y="274.9"/>
      <point x="250.138" y="274.9" type="curve" smooth="yes"/>
      <point x="237.391" y="274.9"/>
      <point x="224.77" y="275.512"/>
      <point x="212.395" y="276.711" type="curve" smooth="yes"/>
      <point x="198.357" y="278.071"/>
      <point x="189.2" y="286.041"/>
      <point x="189.2" y="297" type="curve" smooth="yes"/>
      <point x="189.2" y="307.531"/>
      <point x="198.039" y="318"/>
      <point x="212.347" y="318" type="curve" smooth="yes"/>
      <point x="335.851" y="318"/>
      <point x="439.653" y="367.769"/>
      <point x="439.653" y="515.354" type="curve" smooth="yes"/>
      <point x="439.653" y="651.675"/>
      <point x="362.022" y="699.888"/>
      <point x="210.883" y="699.888" type="curve" smooth="yes"/>
      <point x="166.637" y="699.888" type="line"/>
      <point x="164.459" y="600.974"/>
      <point x="163.525" y="494.22"/>
      <point x="163.525" y="395.965" type="curve" smooth="yes"/>
      <point x="163.525" y="281.894"/>
      <point x="164.66" y="167.737"/>
    </contour>
  </outline>
</glyph>
<glyph name="R" format="1">
  <advance width="703"/>
  <unicode hex="0052"/>
  <outline>
    <contour>
      <point x="202.829" y="54.5059" type="line" smooth="yes"/>
      <point x="203.011" y="36.7663"/>
      <point x="224.951" y="20.2598"/>
      <point x="248.144" y="19.9463" type="curve" smooth="yes"/>
      <point x="255.05" y="19.8535" type="line"/>
      <point x="255.05" y="0" type="line"/>
      <point x="54" y="0" type="line"/>
      <point x="54" y="19.293" type="line"/>
      <point x="60.9062" y="19.3838" type="line" smooth="yes"/>
      <point x="84.6465" y="19.6963"/>
      <point x="106.046" y="36.0954"/>
      <point x="106.242" y="54.5674" type="curve" smooth="yes"/>
      <point x="107.839" y="171.213"/>
      <point x="108.146" y="287.812"/>
      <point x="108.146" y="404.252" type="curve" smooth="yes"/>
      <point x="108.146" y="490.013"/>
      <point x="106.362" y="582.549"/>
      <point x="106.362" y="668.178" type="curve" smooth="yes"/>
      <point x="106.362" y="693.558"/>
      <point x="91.1865" y="710.689"/>
      <point x="61.9102" y="711.022" type="curve" smooth="yes"/>
      <point x="54.0029" y="711.112" type="line"/>
      <point x="54.0029" y="730.463" type="line"/>
      <point x="61.1318" y="730.332" type="line" smooth="yes"/>
      <point x="69.749" y="730.173"/>
      <point x="78.3721" y="730.104"/>
      <point x="87" y="730.104" type="curve" smooth="yes"/>
      <point x="150.797" y="730.104"/>
      <point x="214.838" y="734"/>
      <point x="280.265" y="734" type="curve" smooth="yes"/>
      <point x="436.657" y="734"/>
      <point x="551.256" y="676.373"/>
      <point x="551.256" y="534.771" type="curve" smooth="yes"/>
      <point x="551.256" y="431.076"/>
      <point x="475.386" y="365.009"/>
      <point x="385.902" y="342.103" type="curve"/>
      <point x="473.21" y="220.066"/>
      <point x="553.452" y="103.711"/>
      <point x="593.497" y="50.3105" type="curve" smooth="yes"/>
      <point x="607.575" y="31.5381"/>
      <point x="616.38" y="20.4355"/>
      <point x="643.656" y="20.083" type="curve" smooth="yes"/>
      <point x="650.564" y="19.9941" type="line"/>
      <point x="650.565" y="0.696289" type="line"/>
      <point x="534.078" y="0.696289" type="line" smooth="yes"/>
      <point x="483.791" y="0.696289"/>
      <point x="456.397" y="59.7803"/>
      <point x="444.153" y="73.4678" type="curve" smooth="yes"/>
      <point x="444.153" y="73.4678"/>
      <point x="280.174" y="315.288"/>
      <point x="267.871" y="333.006" type="curve"/>
      <point x="244.341" y="333.038"/>
      <point x="223.541" y="333.081"/>
      <point x="199.992" y="335.342" type="curve"/>
    </contour>
    <contour>
      <point x="199.568" y="396.344" type="curve" smooth="yes"/>
      <point x="199.568" y="386.553"/>
      <point x="199.574" y="369.8"/>
      <point x="199.602" y="361.257" type="curve"/>
      <point x="209.294" y="361.109"/>
      <point x="219.667" y="361"/>
      <point x="229" y="361" type="curve" smooth="yes"/>
      <point x="353.599" y="361"/>
      <point x="454.53" y="423.598"/>
      <point x="454.53" y="531.491" type="curve" smooth="yes"/>
      <point x="454.53" y="655.22"/>
      <point x="387.757" y="699.888"/>
      <point x="244" y="699.888" type="curve" smooth="yes"/>
      <point x="203.031" y="699.888" type="line"/>
      <point x="202.102" y="601.007"/>
      <point x="199.568" y="494.332"/>
    </contour>
  </outline>
</glyph>
<glyph name="S" format="1">
  <advance width="583"/>
  <unicode hex="0053"/>
  <outline>
    <contour>
      <point x="125.044" y="195.32" type="curve"/>
      <point x="130.728" y="145.766"/>
      <point x="174.362" y="40.4434"/>
      <point x="295.371" y="40.4434" type="curve" smooth="yes"/>
      <point x="389.676" y="40.4434"/>
      <point x="448.308" y="101.717"/>
      <point x="448.308" y="174.49" type="curve" smooth="yes"/>
      <point x="448.308" y="248.498"/>
      <point x="382.277" y="295.261"/>
      <point x="294.211" y="345.998" type="curve" smooth="yes"/>
      <point x="201.449" y="399.44"/>
      <point x="95.5469" y="475.965"/>
      <point x="95.5469" y="558.514" type="curve" smooth="yes"/>
      <point x="95.5469" y="650.105"/>
      <point x="169.592" y="742.33"/>
      <point x="329.259" y="742.33" type="curve" smooth="yes"/>
      <point x="418.719" y="742.33"/>
      <point x="515.37" y="714.271"/>
      <point x="515.37" y="686" type="curve" smooth="yes"/>
      <point x="515.37" y="672.715"/>
      <point x="493.745" y="597.898"/>
      <point x="474" y="597.898" type="curve" smooth="yes"/>
      <point x="446.295" y="597.898"/>
      <point x="428.185" y="705.885"/>
      <point x="312.271" y="705.885" type="curve" smooth="yes"/>
      <point x="211.012" y="705.885"/>
      <point x="184.682" y="633.636"/>
      <point x="184.682" y="584.478" type="curve" smooth="yes"/>
      <point x="184.682" y="516.304"/>
      <point x="254.86" y="476.045"/>
      <point x="341.652" y="427.27" type="curve" smooth="yes"/>
      <point x="447.295" y="366.635"/>
      <point x="530.809" y="304.594"/>
      <point x="530.809" y="214.553" type="curve" smooth="yes"/>
      <point x="530.809" y="130.538"/>
      <point x="493.146" y="78.2412"/>
      <point x="442.796" y="38.1035" type="curve" smooth="yes"/>
      <point x="404.486" y="7.85742"/>
      <point x="344.52" y="-9.56348"/>
      <point x="292.998" y="-9.56348" type="curve" smooth="yes"/>
      <point x="140.957" y="-9.56348"/>
      <point x="50.002" y="75.9795"/>
      <point x="50.002" y="123" type="curve" smooth="yes"/>
      <point x="50.002" y="146.665"/>
      <point x="87.6758" y="206.003"/>
      <point x="112" y="206.003" type="curve" smooth="yes"/>
      <point x="115.35" y="206.003"/>
      <point x="124.102" y="204.381"/>
    </contour>
  </outline>
</glyph>
<glyph name="V" format="1">
  <advance width="786"/>
  <unicode hex="0056"/>
  <outline>
    <contour>
      <point x="244.281" y="711" type="line" smooth="yes"/>
      <point x="221.904" y="711"/>
      <point x="199.229" y="693.776"/>
      <point x="199.229" y="679.516" type="curve" smooth="yes"/>
      <point x="199.229" y="675.904"/>
      <point x="199.849" y="669.178"/>
      <point x="202.66" y="662.182" type="curve"/>
      <point x="417.529" y="145.462" type="line"/>
      <point x="635.531" y="655.711" type="line"/>
      <point x="641.449" y="669.484"/>
      <point x="643.592" y="673.052"/>
      <point x="643.592" y="679.165" type="curve" smooth="yes"/>
      <point x="643.592" y="695.606"/>
      <point x="620.804" y="711"/>
      <point x="599.906" y="711" type="curve" smooth="yes"/>
      <point x="592.688" y="711" type="line"/>
      <point x="592.688" y="730" type="line"/>
      <point x="749" y="730" type="line"/>
      <point x="749" y="711" type="line"/>
      <point x="742" y="711" type="line" smooth="yes"/>
      <point x="713.4" y="711"/>
      <point x="708.611" y="695.818"/>
      <point x="694.31" y="668.628" type="curve"/>
      <point x="420.109" y="24.9521" type="line"/>
      <point x="414.923" y="13.1201"/>
      <point x="411.835" y="6.26953"/>
      <point x="411.824" y="6.24512" type="curve" smooth="yes"/>
      <point x="411.739" y="6.05469" type="line"/>
      <point x="411.644" y="5.86914" type="line" smooth="yes"/>
      <point x="410.178" y="3.02539"/>
      <point x="408.18" y="-8"/>
      <point x="396.938" y="-8" type="curve" smooth="yes"/>
      <point x="387.444" y="-8"/>
      <point x="383.721" y="-0.759766"/>
      <point x="380.908" y="6.51465" type="curve" smooth="yes"/>
      <point x="286.951" y="228.435"/>
      <point x="191.317" y="449.225"/>
      <point x="100" y="675.552" type="curve" smooth="yes"/>
      <point x="90.2522" y="699.712"/>
      <point x="82.5195" y="711"/>
      <point x="57" y="711" type="curve" smooth="yes"/>
      <point x="50" y="711" type="line"/>
      <point x="50" y="730" type="line"/>
      <point x="251.5" y="730" type="line"/>
      <point x="251.5" y="711" type="line"/>
    </contour>
  </outline>
</glyph>
<glyph name="W" format="1">
  <advance width="1071"/>
  <unicode hex="0057"/>
  <outline>
    <contour>
      <point x="933" y="678" type="curve" smooth="yes"/>
      <point x="933" y="696.315"/>
      <point x="910.264" y="710.651"/>
      <point x="890.058" y="710.918" type="curve" smooth="yes"/>
      <point x="883.024" y="711.011" type="line"/>
      <point x="883.024" y="730" type="line"/>
      <point x="1036" y="730" type="line"/>
      <point x="1036" y="711.577" type="line"/>
      <point x="1029.09" y="711.486" type="line" smooth="yes"/>
      <point x="997.899" y="711.076"/>
      <point x="991.429" y="693.635"/>
      <point x="979" y="666" type="curve" smooth="yes"/>
      <point x="979" y="666"/>
      <point x="752.282" y="79.9092"/>
      <point x="729.326" y="25.2705" type="curve"/>
      <point x="724.583" y="14.5498"/>
      <point x="721.118" y="7.03906"/>
      <point x="721.082" y="6.95996" type="curve" smooth="yes"/>
      <point x="717.247" y="-1.48633"/>
      <point x="712.216" y="-7.8291"/>
      <point x="703.973" y="-7.8291" type="curve" smooth="yes"/>
      <point x="695.474" y="-7.8291"/>
      <point x="691.588" y="-0.285156"/>
      <point x="688.56" y="6.73438" type="curve" smooth="yes"/>
      <point x="685.62" y="13.5459"/>
      <point x="626.369" y="173.615"/>
      <point x="557.976" y="340.579" type="curve"/>
      <point x="425.332" y="25.5645" type="line" smooth="yes"/>
      <point x="420.65" y="14.7744"/>
      <point x="417.132" y="7"/>
      <point x="417.114" y="6.96094" type="curve" smooth="yes"/>
      <point x="413.28" y="-1.48633"/>
      <point x="408.249" y="-7.8291"/>
      <point x="400.005" y="-7.8291" type="curve" smooth="yes"/>
      <point x="391.654" y="-7.8291"/>
      <point x="387.51" y="-0.483398"/>
      <point x="384.53" y="6.88086" type="curve" smooth="yes"/>
      <point x="379.507" y="19.0654"/>
      <point x="188.992" y="485.73"/>
      <point x="118.155" y="656.7" type="curve" smooth="yes"/>
      <point x="111.258" y="672.945" type="line" smooth="yes"/>
      <point x="100.129" y="699.717"/>
      <point x="94.9658" y="710.116"/>
      <point x="66.9062" y="710.486" type="curve" smooth="yes"/>
      <point x="60" y="710.577" type="line"/>
      <point x="60" y="730" type="line"/>
      <point x="260.98" y="730" type="line"/>
      <point x="260.98" y="711.011" type="line"/>
      <point x="254.947" y="710.918" type="line" smooth="yes"/>
      <point x="233.105" y="710.628"/>
      <point x="208.865" y="696.48"/>
      <point x="208.865" y="675" type="curve" smooth="yes"/>
      <point x="208.865" y="670.38"/>
      <point x="210.082" y="668.721"/>
      <point x="212.344" y="661.509" type="curve"/>
      <point x="424.078" y="144.792" type="line"/>
      <point x="534.101" y="398.893" type="line"/>
      <point x="417" y="675" type="line" smooth="yes"/>
      <point x="406.807" y="698.918"/>
      <point x="391.247" y="710.686"/>
      <point x="373.604" y="710.918" type="curve" smooth="yes"/>
      <point x="366.57" y="711.011" type="line"/>
      <point x="366.57" y="730" type="line"/>
      <point x="549.838" y="730" type="line"/>
      <point x="549.838" y="711.145" type="line"/>
      <point x="542.804" y="711.053" type="line" smooth="yes"/>
      <point x="521.974" y="710.78"/>
      <point x="500.603" y="696.187"/>
      <point x="500.603" y="678" type="curve" smooth="yes"/>
      <point x="500.603" y="672.761"/>
      <point x="501.969" y="668.475"/>
      <point x="505.576" y="659.312" type="curve"/>
      <point x="575.789" y="494.91" type="line"/>
      <point x="599.378" y="549.239"/>
      <point x="622.045" y="601.56"/>
      <point x="645.297" y="655.113" type="curve"/>
      <point x="651.518" y="668.96"/>
      <point x="652.875" y="672.304"/>
      <point x="652.875" y="679" type="curve" smooth="yes"/>
      <point x="652.875" y="697.28"/>
      <point x="631.066" y="710.671"/>
      <point x="612.349" y="710.918" type="curve" smooth="yes"/>
      <point x="605.315" y="711.011" type="line"/>
      <point x="605.315" y="730" type="line"/>
      <point x="759.429" y="730" type="line"/>
      <point x="759.429" y="711.011" type="line"/>
      <point x="752.395" y="710.918" type="line" smooth="yes"/>
      <point x="723.673" y="710.538"/>
      <point x="718.71" y="697.356"/>
      <point x="706.767" y="672.131" type="curve" smooth="yes"/>
      <point x="607.169" y="440.826" type="line"/>
      <point x="722.754" y="138.828" type="line"/>
      <point x="791.862" y="308.488"/>
      <point x="854.1" y="484.438"/>
      <point x="925.398" y="654.554" type="curve"/>
      <point x="929" y="662"/>
      <point x="933" y="671.157"/>
    </contour>
  </outline>
</glyph>
<glyph name="Y" format="1">
  <advance width="712"/>
  <unicode hex="0059"/>
  <outline>
    <contour>
      <point x="308.71" y="54.9951" type="curve" smooth="yes"/>
      <point x="309.968" y="125.229"/>
      <point x="310.812" y="191.127"/>
      <point x="310.812" y="259.031" type="curve" smooth="yes"/>
      <point x="310.812" y="300.252"/>
      <point x="310.961" y="343.72"/>
      <point x="311.084" y="382.946" type="curve"/>
      <point x="225.188" y="507.12"/>
      <point x="143.474" y="627.558"/>
      <point x="103.213" y="681.241" type="curve" smooth="yes"/>
      <point x="89.8594" y="699.045"/>
      <point x="71.7646" y="711.265"/>
      <point x="55.9102" y="711.471" type="curve" smooth="yes"/>
      <point x="49.0039" y="711.561" type="line"/>
      <point x="49" y="729.854" type="line"/>
      <point x="254.499" y="729.854" type="line"/>
      <point x="254.499" y="710.999" type="line"/>
      <point x="247.593" y="710.907" type="line" smooth="yes"/>
      <point x="232.003" y="710.697"/>
      <point x="206.822" y="697.22"/>
      <point x="206.822" y="684.558" type="curve" smooth="yes"/>
      <point x="206.822" y="679.491"/>
      <point x="208.636" y="672.503"/>
      <point x="217.651" y="659.009" type="curve" smooth="yes"/>
      <point x="376.44" y="432.902" type="line"/>
      <point x="542.675" y="653.278" type="line" smooth="yes"/>
      <point x="556.685" y="672.419"/>
      <point x="560.837" y="681.828"/>
      <point x="560.837" y="688.009" type="curve" smooth="yes"/>
      <point x="560.837" y="697.953"/>
      <point x="538.114" y="710.645"/>
      <point x="524.206" y="710.831" type="curve" smooth="yes"/>
      <point x="517.3" y="710.923" type="line"/>
      <point x="517.3" y="729.777" type="line"/>
      <point x="672.498" y="729.777" type="line"/>
      <point x="672.498" y="711.483" type="line"/>
      <point x="665.591" y="711.394" type="line" smooth="yes"/>
      <point x="642.137" y="711.089"/>
      <point x="625.052" y="692.292"/>
      <point x="617.707" y="681.883" type="curve"/>
      <point x="402.614" y="393.006" type="line"/>
      <point x="403.398" y="346.582"/>
      <point x="403.646" y="303.552"/>
      <point x="403.646" y="258.05" type="curve" smooth="yes"/>
      <point x="403.646" y="190.79"/>
      <point x="404.324" y="123.291"/>
      <point x="405.627" y="55.5205" type="curve" smooth="yes"/>
      <point x="405.627" y="35.1797"/>
      <point x="427.797" y="19.6924"/>
      <point x="452.692" y="19.3828" type="curve" smooth="yes"/>
      <point x="457.995" y="19.292" type="line"/>
      <point x="457.995" y="0" type="line"/>
      <point x="257.058" y="0" type="line"/>
      <point x="257.058" y="19.292" type="line"/>
      <point x="263.964" y="19.3828" type="line" smooth="yes"/>
      <point x="288.418" y="19.6963"/>
      <point x="308.71" y="36.1992"/>
    </contour>
  </outline>
</glyph>
<glyph name="grave" format="1">
  <advance width="251"/>
  <unicode hex="0060"/>
  <outline>
    <contour>
      <point x="213.811" y="528.192" type="line" smooth="yes"/>
      <point x="160.905" y="563.778"/>
      <point x="45.3832" y="646.829"/>
      <point x="29.1889" y="663.023" type="curve" smooth="yes"/>
      <point x="18.9118" y="673.3"/>
      <point x="14.0681" y="686.762"/>
      <point x="14.0681" y="700" type="curve" smooth="yes"/>
      <point x="14.0681" y="727.183"/>
      <point x="37.8745" y="750.9"/>
      <point x="65" y="750.9" type="curve" smooth="yes"/>
      <point x="78.2332" y="750.9"/>
      <point x="91.679" y="746.045"/>
      <point x="101.945" y="735.78" type="curve" smooth="yes"/>
      <point x="118.189" y="719.537"/>
      <point x="200.497" y="603.32"/>
      <point x="236.714" y="551.247" type="curve" smooth="yes"/>
      <point x="240.058" y="546.44" type="line"/>
      <point x="218.593" y="524.975" type="line"/>
    </contour>
  </outline>
</glyph>
<glyph name="d" format="1">
  <advance width="573"/>
  <unicode hex="0064"/>
  <outline>
    <contour>
      <point x="523.932" y="47.9854" type="curve"/>
      <point x="528.404" y="21.4717" type="line"/>
      <point x="498.944" y="8.19863"/>
      <point x="467.719" y="-7.39941"/>
      <point x="438.31" y="-7.39941" type="curve" smooth="yes"/>
      <point x="416.249" y="-7.39941"/>
      <point x="407.639" y="10.9307"/>
      <point x="404.729" y="24.4404" type="curve"/>
      <point x="370.119" y="2.39551"/>
      <point x="331.842" y="-10"/>
      <point x="280.903" y="-10" type="curve" smooth="yes"/>
      <point x="149.617" y="-10"/>
      <point x="37.001" y="64.3496"/>
      <point x="37.001" y="264.028" type="curve" smooth="yes"/>
      <point x="37.001" y="427.936"/>
      <point x="118.71" y="513.166"/>
      <point x="277.838" y="513.166" type="curve" smooth="yes"/>
      <point x="321.85" y="513.166"/>
      <point x="362.999" y="495.953"/>
      <point x="403.408" y="480" type="curve"/>
      <point x="403.408" y="674.149" type="line" smooth="yes"/>
      <point x="403.408" y="695.746"/>
      <point x="392.612" y="705.496"/>
      <point x="374.979" y="705.496" type="curve" smooth="yes"/>
      <point x="367.559" y="705.496" type="line"/>
      <point x="367.559" y="721.457" type="line"/>
      <point x="469.542" y="747.041" type="line" smooth="yes"/>
      <point x="470.979" y="747.426"/>
      <point x="472.453" y="747.668"/>
      <point x="474" y="747.668" type="curve" smooth="yes"/>
      <point x="477.242" y="747.668"/>
      <point x="480.897" y="746.262"/>
      <point x="483.209" y="743.402" type="curve" smooth="yes"/>
      <point x="487.47" y="738.135"/>
      <point x="487.254" y="731.63"/>
      <point x="487.285" y="723.425" type="curve" smooth="yes"/>
      <point x="487.189" y="57.2822" type="line"/>
      <point x="487.189" y="57.2822"/>
      <point x="487.468" y="50.7002"/>
      <point x="487.468" y="49.1064" type="curve" smooth="yes"/>
      <point x="487.468" y="39.6729" type="line"/>
      <point x="498.047" y="41.9181"/>
      <point x="513.628" y="44.9238"/>
    </contour>
    <contour>
      <point x="403.408" y="59.1406" type="curve"/>
      <point x="403.408" y="388.743" type="line"/>
      <point x="389.793" y="449.66"/>
      <point x="347.599" y="492"/>
      <point x="278.897" y="492" type="curve" smooth="yes"/>
      <point x="177.217" y="492"/>
      <point x="127.023" y="395.882"/>
      <point x="127.023" y="274.884" type="curve" smooth="yes"/>
      <point x="127.023" y="122.408"/>
      <point x="168.677" y="23.8711"/>
      <point x="299.037" y="23.8711" type="curve" smooth="yes"/>
      <point x="330.591" y="23.8711"/>
      <point x="367.07" y="34.7539"/>
    </contour>
  </outline>
</glyph>
<glyph name="f" format="1">
  <advance width="496"/>
  <unicode hex="0066"/>
  <outline>
    <contour>
      <point x="334.246" y="766.188" type="curve" smooth="yes"/>
      <point x="377.683" y="766.188"/>
      <point x="430.945" y="754.113"/>
      <point x="472.902" y="706.52" type="curve" smooth="yes"/>
      <point x="476.373" y="702.583"/>
      <point x="478.676" y="698.003"/>
      <point x="478.676" y="693" type="curve" smooth="yes"/>
      <point x="478.676" y="672.469"/>
      <point x="448.479" y="665.073"/>
      <point x="433.04" y="665.073" type="curve" smooth="yes"/>
      <point x="369.068" y="665.073"/>
      <point x="387.37" y="741.104"/>
      <point x="315.694" y="741.104" type="curve" smooth="yes"/>
      <point x="241.602" y="741.104"/>
      <point x="185.217" y="696.162"/>
      <point x="185.217" y="585.434" type="curve"/>
      <point x="185.719" y="504.654" type="line"/>
      <point x="304.597" y="504.654" type="line" smooth="yes"/>
      <point x="327.313" y="504.654"/>
      <point x="341.929" y="499.588"/>
      <point x="341.929" y="485.53" type="curve" smooth="yes"/>
      <point x="341.929" y="478.766"/>
      <point x="336.129" y="467.914"/>
      <point x="333.444" y="462.57" type="curve"/>
      <point x="327.683" y="462.57" type="line" smooth="yes"/>
      <point x="321.415" y="462.57"/>
      <point x="238.076" y="465.996"/>
      <point x="191.303" y="466.386" type="curve"/>
      <point x="190.833" y="43.4805" type="line"/>
      <point x="193.222" y="31.7988"/>
      <point x="204.671" y="18.9629"/>
      <point x="220.096" y="18.7627" type="curve" smooth="yes"/>
      <point x="227.004" y="18.6738" type="line"/>
      <point x="227.004" y="0" type="line"/>
      <point x="70.8809" y="0" type="line"/>
      <point x="70.8809" y="18.668" type="line"/>
      <point x="77.7881" y="18.7568" type="line" smooth="yes"/>
      <point x="93.4336" y="18.957"/>
      <point x="104.913" y="32.4238"/>
      <point x="107.107" y="43.7568" type="curve"/>
      <point x="107.107" y="466.249" type="line"/>
      <point x="70.7881" y="465.396"/>
      <point x="67.0342" y="463.261"/>
      <point x="52" y="461.102" type="curve"/>
      <point x="60.3311" y="500.703" type="line"/>
      <point x="107.104" y="500.703" type="line"/>
      <point x="107.1" y="512.754"/>
      <point x="107.093" y="543.113"/>
      <point x="107.093" y="556" type="curve" smooth="yes"/>
      <point x="107.093" y="704.113"/>
      <point x="189.974" y="766.188"/>
    </contour>
  </outline>
</glyph>
<glyph name="g" format="1">
  <advance width="524"/>
  <unicode hex="0067"/>
  <outline>
    <contour>
      <point x="235.616" y="-216.951" type="curve" smooth="yes"/>
      <point x="333.702" y="-216.951"/>
      <point x="434.449" y="-162.544"/>
      <point x="434.449" y="-101.783" type="curve" smooth="yes"/>
      <point x="434.449" y="-30.6143"/>
      <point x="355.367" y="-24.0938"/>
      <point x="263.055" y="-16" type="curve"/>
      <point x="258.998" y="-15.8584"/>
      <point x="232.913" y="-14.335"/>
      <point x="229.458" y="-14.0918" type="curve"/>
      <point x="133.525" y="-45.7764"/>
      <point x="100.942" y="-62.1953"/>
      <point x="100.942" y="-123.131" type="curve" smooth="yes"/>
      <point x="100.942" y="-178.02"/>
      <point x="159.716" y="-216.951"/>
    </contour>
    <contour>
      <point x="129.041" y="318.277" type="curve" smooth="yes"/>
      <point x="129.041" y="200.254"/>
      <point x="168.437" y="132.907"/>
      <point x="254.312" y="132.907" type="curve" smooth="yes"/>
      <point x="336.979" y="132.907"/>
      <point x="358.938" y="212.669"/>
      <point x="358.938" y="296" type="curve" smooth="yes"/>
      <point x="358.938" y="402.141"/>
      <point x="320.414" y="468.089"/>
      <point x="230.644" y="468.089" type="curve" smooth="yes"/>
      <point x="160.854" y="468.089"/>
      <point x="129.041" y="384.315"/>
    </contour>
    <contour>
      <point x="433.329" y="288.173" type="curve" smooth="yes"/>
      <point x="433.329" y="106.467"/>
      <point x="295.334" y="102.133"/>
      <point x="174.604" y="66.835" type="curve" smooth="yes"/>
      <point x="170.432" y="65.6152"/>
      <point x="163.943" y="60.5371"/>
      <point x="163.943" y="56.1104" type="curve" smooth="yes"/>
      <point x="163.943" y="49.6768"/>
      <point x="174.943" y="45.6914"/>
      <point x="179.628" y="44.9932" type="curve" smooth="yes"/>
      <point x="193" y="43"/>
      <point x="206.854" y="40.9268"/>
      <point x="217.181" y="39.9268" type="curve"/>
      <point x="318.354" y="30.5283" type="line" smooth="yes"/>
      <point x="417.31" y="21.3359"/>
      <point x="490.154" y="13.8311"/>
      <point x="490.154" y="-72.9111" type="curve" smooth="yes"/>
      <point x="490.154" y="-186.104"/>
      <point x="360.876" y="-242.607"/>
      <point x="235.281" y="-242.607" type="curve" smooth="yes"/>
      <point x="129.597" y="-242.607"/>
      <point x="20.126" y="-224.129"/>
      <point x="20.126" y="-135.368" type="curve" smooth="yes"/>
      <point x="20.126" y="-59.624"/>
      <point x="112.889" y="-27.6729"/>
      <point x="182.306" y="-7.97656" type="curve"/>
      <point x="158.075" y="-5.60645"/>
      <point x="139.797" y="-2.91211"/>
      <point x="124.76" y="0.139648" type="curve" smooth="yes"/>
      <point x="96.0176" y="5.81348"/>
      <point x="59.7812" y="15.3936"/>
      <point x="59.7812" y="41.1318" type="curve" smooth="yes"/>
      <point x="59.7812" y="79.8955"/>
      <point x="142.168" y="101.177"/>
      <point x="187.683" y="113.346" type="curve"/>
      <point x="114.355" y="128.987"/>
      <point x="50.7754" y="184.804"/>
      <point x="50.7754" y="312.19" type="curve" smooth="yes"/>
      <point x="50.7754" y="429.479"/>
      <point x="112.878" y="485.887"/>
      <point x="199.621" y="497.924" type="curve" smooth="yes"/>
      <point x="213.176" y="499.82"/>
      <point x="227.258" y="500.067"/>
      <point x="240.607" y="500.067" type="curve" smooth="yes"/>
      <point x="282.247" y="500.067"/>
      <point x="322.791" y="489.751"/>
      <point x="357.404" y="466.489" type="curve"/>
      <point x="388.927" y="485.613"/>
      <point x="415.327" y="495"/>
      <point x="454.151" y="495" type="curve" smooth="yes"/>
      <point x="467.814" y="495"/>
      <point x="476" y="486.526"/>
      <point x="476" y="473.691" type="curve" smooth="yes"/>
      <point x="476" y="442.504"/>
      <point x="439.521" y="427.588"/>
      <point x="407.205" y="427.588" type="curve" smooth="yes"/>
      <point x="404.495" y="427.588"/>
      <point x="398.329" y="427.885"/>
      <point x="397" y="428" type="curve"/>
      <point x="420" y="390"/>
      <point x="433.329" y="344.012"/>
    </contour>
  </outline>
</glyph>
<glyph name="k" format="1">
  <advance width="561"/>
  <unicode hex="006B"/>
  <outline>
    <contour>
      <point x="171" y="722" type="curve" smooth="yes"/>
      <point x="171" y="351.862" type="line" smooth="yes"/>
      <point x="171.768" y="336.038"/>
      <point x="180.244" y="335"/>
      <point x="190" y="335" type="curve" smooth="yes"/>
      <point x="198.452" y="335"/>
      <point x="215.85" y="346.593"/>
      <point x="294.701" y="402.021" type="curve"/>
      <point x="351.341" y="442.258"/>
      <point x="375.62" y="461.011"/>
      <point x="375.62" y="471.697" type="curve" smooth="yes"/>
      <point x="375.62" y="482.392"/>
      <point x="367.021" y="487"/>
      <point x="357.151" y="487" type="curve" smooth="yes"/>
      <point x="351.534" y="487" type="line"/>
      <point x="351.534" y="506.515" type="line"/>
      <point x="502" y="506.515" type="line"/>
      <point x="502" y="487" type="line"/>
      <point x="495" y="487" type="line" smooth="yes"/>
      <point x="476.709" y="487"/>
      <point x="458.841" y="475.701"/>
      <point x="449.131" y="468.991" type="curve" smooth="yes"/>
      <point x="410.36" y="442.199"/>
      <point x="373.771" y="403.188"/>
      <point x="270.807" y="332.504" type="curve"/>
      <point x="276.003" y="319.545"/>
      <point x="307.494" y="286.864"/>
      <point x="374.089" y="208.611" type="curve"/>
      <point x="446.601" y="117.443"/>
      <point x="472.531" y="75.7178"/>
      <point x="486.6" y="56.3682" type="curve" smooth="yes"/>
      <point x="502.188" y="34.9287"/>
      <point x="504.114" y="19"/>
      <point x="527" y="19" type="curve" smooth="yes"/>
      <point x="534" y="19" type="line"/>
      <point x="534" y="0" type="line"/>
      <point x="380" y="0" type="line"/>
      <point x="380" y="19" type="line"/>
      <point x="387" y="19" type="line" smooth="yes"/>
      <point x="395.229" y="19"/>
      <point x="402" y="28.1348"/>
      <point x="402" y="39" type="curve" smooth="yes"/>
      <point x="402" y="68.0859"/>
      <point x="212.423" y="290"/>
      <point x="180" y="290" type="curve" smooth="yes"/>
      <point x="175.99" y="290"/>
      <point x="173.263" y="289.358"/>
      <point x="171" y="288.315" type="curve"/>
      <point x="171" y="43.418" type="line"/>
      <point x="174.051" y="32.3398"/>
      <point x="184.318" y="19"/>
      <point x="200" y="19" type="curve" smooth="yes"/>
      <point x="207" y="19" type="line"/>
      <point x="207" y="0" type="line"/>
      <point x="51" y="0" type="line"/>
      <point x="51" y="19" type="line"/>
      <point x="58" y="19" type="line" smooth="yes"/>
      <point x="74.7461" y="19"/>
      <point x="85.3164" y="33.1719"/>
      <point x="87" y="44.0674" type="curve"/>
      <point x="87" y="670" type="line" smooth="yes"/>
      <point x="87" y="694.494"/>
      <point x="78.3701" y="704"/>
      <point x="60" y="704" type="curve" smooth="yes"/>
      <point x="53" y="704" type="line"/>
      <point x="53" y="719.399" type="line"/>
      <point x="142.081" y="742.733" type="line"/>
      <point x="145.627" y="743.824"/>
      <point x="153.495" y="745.612"/>
      <point x="158" y="745.612" type="curve" smooth="yes"/>
      <point x="170.06" y="745.612"/>
      <point x="171" y="734.622"/>
    </contour>
  </outline>
</glyph>
<glyph name="l" format="1">
  <advance width="265"/>
  <unicode hex="006C"/>
  <outline>
    <contour>
      <point x="169.954" y="43.8564" type="line"/>
      <point x="172.342" y="32.0967"/>
      <point x="183.74" y="19.2158"/>
      <point x="199.216" y="19.0156" type="curve" smooth="yes"/>
      <point x="206.123" y="18.9258" type="line"/>
      <point x="206.123" y="0" type="line"/>
      <point x="50" y="0" type="line"/>
      <point x="50" y="18.8799" type="line"/>
      <point x="56.9072" y="18.9697" type="line" smooth="yes"/>
      <point x="72.6025" y="19.1699"/>
      <point x="84.0264" y="32.6797"/>
      <point x="86.2266" y="44.0762" type="curve"/>
      <point x="86.2266" y="695.57" type="line" smooth="yes"/>
      <point x="86.2266" y="716.928"/>
      <point x="76.3926" y="726.916"/>
      <point x="59.4092" y="726.916" type="curve" smooth="yes"/>
      <point x="52.4092" y="726.916" type="line"/>
      <point x="52.4092" y="742.877" type="line"/>
      <point x="152.308" y="768.461" type="line" smooth="yes"/>
      <point x="154.011" y="768.915"/>
      <point x="155.62" y="769.081"/>
      <point x="157" y="769.081" type="curve" smooth="yes"/>
      <point x="169.768" y="769.081"/>
      <point x="170.012" y="754.661"/>
      <point x="170.049" y="744.844" type="curve" smooth="yes"/>
    </contour>
  </outline>
</glyph>
<glyph name="m" format="1">
  <advance width="899"/>
  <unicode hex="006D"/>
  <outline>
    <contour>
      <point x="176.91" y="43.3652" type="line"/>
      <point x="179.305" y="31.7276"/>
      <point x="190.771" y="18.8984"/>
      <point x="206.17" y="18.7012" type="curve" smooth="yes"/>
      <point x="213.077" y="18.6123" type="line"/>
      <point x="213.077" y="0" type="line"/>
      <point x="57" y="0" type="line"/>
      <point x="57" y="18.6016" type="line"/>
      <point x="63.9072" y="18.6904" type="line" smooth="yes"/>
      <point x="79.541" y="18.8906"/>
      <point x="91.0322" y="32.3447"/>
      <point x="93.2275" y="43.6582" type="curve"/>
      <point x="93.2275" y="441.467" type="line" smooth="yes"/>
      <point x="93.2275" y="462.32"/>
      <point x="81.2158" y="471.892"/>
      <point x="64.4092" y="471.892" type="curve" smooth="yes"/>
      <point x="59.4092" y="471.892" type="line"/>
      <point x="59.4092" y="487.911" type="line"/>
      <point x="159.332" y="512.456" type="line" smooth="yes"/>
      <point x="161" y="513"/>
      <point x="163.414" y="513"/>
      <point x="164.381" y="513" type="curve" smooth="yes"/>
      <point x="177.231" y="513"/>
      <point x="176.968" y="498.932"/>
      <point x="177.002" y="489.821" type="curve" smooth="yes"/>
      <point x="177.002" y="482.669"/>
      <point x="176.999" y="473.956"/>
      <point x="176.997" y="467.792" type="curve"/>
      <point x="215.393" y="495.193"/>
      <point x="260.305" y="511.255"/>
      <point x="320.564" y="511.255" type="curve" smooth="yes"/>
      <point x="383.515" y="511.255"/>
      <point x="443.71" y="487.418"/>
      <point x="477.082" y="431.502" type="curve"/>
      <point x="518.541" y="492.947"/>
      <point x="583.271" y="508.255"/>
      <point x="651.413" y="508.255" type="curve" smooth="yes"/>
      <point x="739.147" y="508.255"/>
      <point x="829.208" y="455.988"/>
      <point x="829.208" y="346.091" type="curve" smooth="yes"/>
      <point x="829.141" y="43.4707" type="line"/>
      <point x="831.53" y="31.8086"/>
      <point x="842.984" y="18.9648"/>
      <point x="858.401" y="18.7676" type="curve" smooth="yes"/>
      <point x="865.309" y="18.6787" type="line"/>
      <point x="865.309" y="0" type="line"/>
      <point x="710.186" y="0" type="line"/>
      <point x="710.186" y="18.6113" type="line"/>
      <point x="717.093" y="18.6992" type="line" smooth="yes"/>
      <point x="732.729" y="18.8994"/>
      <point x="744.221" y="32.3564"/>
      <point x="746.413" y="43.6758" type="curve"/>
      <point x="746.413" y="351.447" type="line" smooth="yes"/>
      <point x="746.413" y="428.107"/>
      <point x="705.946" y="476.936"/>
      <point x="633.635" y="476.936" type="curve" smooth="yes"/>
      <point x="594.698" y="476.936"/>
      <point x="538.656" y="465.312"/>
      <point x="497.83" y="404.262" type="curve"/>
      <point x="499.094" y="398.044"/>
      <point x="499.34" y="395.353"/>
      <point x="499.34" y="389.859" type="curve" smooth="yes"/>
      <point x="499.271" y="43.3809" type="line"/>
      <point x="501.661" y="31.7295"/>
      <point x="513.125" y="18.8965"/>
      <point x="528.534" y="18.6992" type="curve" smooth="yes"/>
      <point x="535.441" y="18.6113" type="line"/>
      <point x="535.441" y="0" type="line"/>
      <point x="383.32" y="0" type="line"/>
      <point x="383.32" y="18.6123" type="line"/>
      <point x="390.228" y="18.7012" type="line" smooth="yes"/>
      <point x="405.864" y="18.9014"/>
      <point x="417.341" y="32.3584"/>
      <point x="419.545" y="43.668" type="curve"/>
      <point x="419.545" y="358.265" type="line" smooth="yes"/>
      <point x="419.545" y="424.315"/>
      <point x="365.392" y="477.936"/>
      <point x="298.225" y="477.936" type="curve" smooth="yes"/>
      <point x="256.185" y="477.936"/>
      <point x="214.319" y="465.345"/>
      <point x="176.989" y="439.393" type="curve"/>
    </contour>
  </outline>
</glyph>
<glyph name="o" format="1">
  <advance width="547"/>
  <unicode hex="006F"/>
  <outline>
    <contour>
      <point x="278" y="-10.3389" type="curve" smooth="yes"/>
      <point x="137.309" y="-10.3389"/>
      <point x="34.9424" y="62.8125"/>
      <point x="34.9424" y="253.925" type="curve" smooth="yes"/>
      <point x="34.9424" y="439.155"/>
      <point x="127.747" y="512.426"/>
      <point x="268" y="512.426" type="curve" smooth="yes"/>
      <point x="397.146" y="512.426"/>
      <point x="513.081" y="438.779"/>
      <point x="513.081" y="253.85" type="curve" smooth="yes"/>
      <point x="513.081" y="57.7432"/>
      <point x="421.943" y="-10.3389"/>
    </contour>
    <contour>
      <point x="125.237" y="275.402" type="curve" smooth="yes"/>
      <point x="125.237" y="119.356"/>
      <point x="170.274" y="25.4287"/>
      <point x="282.292" y="25.4287" type="curve" smooth="yes"/>
      <point x="390.566" y="25.4287"/>
      <point x="422.789" y="148.397"/>
      <point x="422.789" y="235.684" type="curve" smooth="yes"/>
      <point x="422.789" y="391.96"/>
      <point x="385.736" y="491.658"/>
      <point x="267.734" y="491.658" type="curve" smooth="yes"/>
      <point x="172.557" y="491.658"/>
      <point x="125.237" y="396.979"/>
    </contour>
  </outline>
</glyph>
<glyph name="p" format="1">
  <advance width="569"/>
  <unicode hex="0070"/>
  <outline>
    <contour>
      <point x="162.954" y="-188.317" type="line"/>
      <point x="165.37" y="-200.441"/>
      <point x="177.661" y="-213.233"/>
      <point x="193.777" y="-213.438" type="curve" smooth="yes"/>
      <point x="199.111" y="-213.53" type="line"/>
      <point x="199.111" y="-232" type="line"/>
      <point x="43" y="-232" type="line"/>
      <point x="43" y="-213.53" type="line"/>
      <point x="49.9062" y="-213.438" type="line" smooth="yes"/>
      <point x="65.7227" y="-213.225"/>
      <point x="77.0322" y="-199.611"/>
      <point x="79.2266" y="-188.021" type="curve"/>
      <point x="79.2266" y="440.517" type="line" smooth="yes"/>
      <point x="79.2266" y="461.506"/>
      <point x="69.2646" y="471.2"/>
      <point x="52.4092" y="471.2" type="curve" smooth="yes"/>
      <point x="45.4092" y="471.2" type="line"/>
      <point x="45.4092" y="487.162" type="line"/>
      <point x="145.308" y="512.746" type="line" smooth="yes"/>
      <point x="147.011" y="513.2"/>
      <point x="149.62" y="513.366"/>
      <point x="151" y="513.366" type="curve" smooth="yes"/>
      <point x="162.768" y="513.366"/>
      <point x="163.012" y="493.946"/>
      <point x="163.049" y="484.13" type="curve" smooth="yes"/>
      <point x="163.049" y="484.748"/>
      <point x="163.048" y="485.414"/>
      <point x="163.047" y="486" type="curve"/>
      <point x="196.877" y="499.777"/>
      <point x="233.912" y="512.063"/>
      <point x="283.047" y="512.063" type="curve" smooth="yes"/>
      <point x="418.123" y="512.063"/>
      <point x="529.173" y="432.145"/>
      <point x="529.173" y="249.925" type="curve" smooth="yes"/>
      <point x="529.173" y="64.6895"/>
      <point x="444.995" y="-9.79688"/>
      <point x="285.933" y="-9.79688" type="curve" smooth="yes"/>
      <point x="248.321" y="-9.79688"/>
      <point x="204.884" y="-4.60156"/>
      <point x="162.982" y="15" type="curve"/>
    </contour>
    <contour>
      <point x="264.818" y="478.146" type="curve" smooth="yes"/>
      <point x="235.872" y="478.146"/>
      <point x="200.968" y="465.664"/>
      <point x="163.041" y="443.397" type="curve"/>
      <point x="162.997" y="113.896" type="line"/>
      <point x="181.632" y="54.6025"/>
      <point x="216.729" y="10.9893"/>
      <point x="294.14" y="10.9893" type="curve" smooth="yes"/>
      <point x="382.453" y="10.9893"/>
      <point x="438.152" y="99.1621"/>
      <point x="438.152" y="225.717" type="curve" smooth="yes"/>
      <point x="438.152" y="390.362"/>
      <point x="393.609" y="478.146"/>
    </contour>
  </outline>
</glyph>
<glyph name="x" format="1">
  <advance width="600"/>
  <unicode hex="0078"/>
  <outline>
    <contour>
      <point x="500.966" y="36.2012" type="curve" smooth="yes"/>
      <point x="505.821" y="31.0439"/>
      <point x="514.839" y="18.877"/>
      <point x="524.986" y="18.7451" type="curve" smooth="yes"/>
      <point x="532.893" y="18.6553" type="line"/>
      <point x="532.893" y="0.00195312" type="line"/>
      <point x="376.796" y="-0.0439453" type="line"/>
      <point x="376.687" y="19.4248" type="line"/>
      <point x="383.625" y="19.5176" type="line" smooth="yes"/>
      <point x="396.627" y="19.6914"/>
      <point x="406.938" y="25.8028"/>
      <point x="406.938" y="33.9443" type="curve" smooth="yes"/>
      <point x="406.938" y="41.1221"/>
      <point x="400.698" y="50.957"/>
      <point x="400" y="52" type="curve"/>
      <point x="400" y="52"/>
      <point x="341.401" y="140.711"/>
      <point x="287.209" y="218.208" type="curve"/>
      <point x="239.31" y="158.728"/>
      <point x="173.176" y="69.4678"/>
      <point x="162" y="55" type="curve"/>
      <point x="160.38" y="52.7578"/>
      <point x="152.876" y="44.376"/>
      <point x="152.876" y="35" type="curve" smooth="yes"/>
      <point x="152.876" y="25.4541"/>
      <point x="168.011" y="19.6299"/>
      <point x="176.299" y="19.5195" type="curve" smooth="yes"/>
      <point x="183.207" y="19.4277" type="line"/>
      <point x="183.201" y="-0.0400391" type="line"/>
      <point x="62.0352" y="-0.0400391" type="line"/>
      <point x="62" y="18.6426" type="line"/>
      <point x="68.9141" y="18.7324" type="line" smooth="yes"/>
      <point x="79.903" y="18.8752"/>
      <point x="88.1768" y="30.9092"/>
      <point x="92.3945" y="35.4854" type="curve" smooth="yes"/>
      <point x="96.9971" y="41.168"/>
      <point x="192.888" y="170.053"/>
      <point x="266.748" y="254.929" type="curve"/>
      <point x="210.182" y="333.133"/>
      <point x="115.951" y="465.117"/>
      <point x="113.675" y="468.282" type="curve" smooth="yes"/>
      <point x="107.889" y="475.538"/>
      <point x="99.3379" y="487.663"/>
      <point x="87.0127" y="487.826" type="curve" smooth="yes"/>
      <point x="80.1406" y="487.917" type="line"/>
      <point x="80" y="506.515" type="line"/>
      <point x="220.512" y="506.515" type="line"/>
      <point x="220.512" y="487.121" type="line"/>
      <point x="213.084" y="487.03" type="line" smooth="yes"/>
      <point x="200.43" y="486.876"/>
      <point x="197.44" y="476.287"/>
      <point x="197.44" y="470.51" type="curve" smooth="yes"/>
      <point x="197.44" y="466.519"/>
      <point x="201.568" y="459.146"/>
      <point x="206" y="453" type="curve" smooth="yes"/>
      <point x="206" y="453"/>
      <point x="256.571" y="383.412"/>
      <point x="306.014" y="314.157" type="curve"/>
      <point x="371.541" y="394.87"/>
      <point x="411.396" y="453.106"/>
      <point x="412" y="454" type="curve" smooth="yes"/>
      <point x="415.559" y="458.85"/>
      <point x="418.271" y="466.908"/>
      <point x="418.271" y="471.201" type="curve" smooth="yes"/>
      <point x="418.271" y="478.374"/>
      <point x="409.148" y="486.921"/>
      <point x="394.281" y="487.119" type="curve" smooth="yes"/>
      <point x="387.396" y="487.211" type="line"/>
      <point x="387.302" y="506.513" type="line"/>
      <point x="510" y="506.515" type="line"/>
      <point x="510" y="487.991" type="line"/>
      <point x="504.079" y="487.915" type="line" smooth="yes"/>
      <point x="490.938" y="487.771"/>
      <point x="482.667" y="473.189"/>
      <point x="478" y="467" type="curve" smooth="yes"/>
      <point x="476.532" y="465.054"/>
      <point x="397.635" y="362.974"/>
      <point x="329.215" y="279.743" type="curve"/>
      <point x="389.5" y="195.868"/>
      <point x="461.721" y="77.8975"/>
    </contour>
  </outline>
</glyph>
<glyph name="y" format="1">
  <advance width="574"/>
  <unicode hex="0079"/>
  <outline>
    <contour>
      <point x="327.27" y="59.2754" type="curve" smooth="yes"/>
      <point x="311.594" y="19.5439"/>
      <point x="289.009" y="-31.0156"/>
      <point x="276.756" y="-50.4844" type="curve" smooth="yes"/>
      <point x="253.96" y="-87.6338"/>
      <point x="172.934" y="-230.118"/>
      <point x="108" y="-230.118" type="curve" smooth="yes"/>
      <point x="91.2422" y="-230.118"/>
      <point x="88.4316" y="-210.823"/>
      <point x="88.4316" y="-201" type="curve" smooth="yes"/>
      <point x="88.4316" y="-192.707"/>
      <point x="89.6816" y="-183.938"/>
      <point x="92.4434" y="-176.549" type="curve" smooth="yes"/>
      <point x="113.428" y="-120.404"/>
      <point x="164" y="-155"/>
      <point x="202.793" y="-100.149" type="curve" smooth="yes"/>
      <point x="216.225" y="-81.1582"/>
      <point x="248.713" y="-25.79"/>
      <point x="256.225" y="-6.17383" type="curve"/>
      <point x="253.391" y="1.63184"/>
      <point x="247.333" y="23.4902"/>
      <point x="246.443" y="25.7305" type="curve" smooth="yes"/>
      <point x="246.443" y="25.7305"/>
      <point x="196.482" y="154.246"/>
      <point x="152.88" y="271.165" type="curve" smooth="yes"/>
      <point x="117.034" y="367.283"/>
      <point x="75.9727" y="466.587"/>
      <point x="75.2568" y="468.303" type="curve" smooth="yes"/>
      <point x="72.2598" y="475.042"/>
      <point x="65.5752" y="489.558"/>
      <point x="46" y="489.558" type="curve"/>
      <point x="46" y="506.515" type="line"/>
      <point x="193.244" y="506.515" type="line"/>
      <point x="193.244" y="488.426" type="line"/>
      <point x="187.338" y="488.334" type="line" smooth="yes"/>
      <point x="175.925" y="488.157"/>
      <point x="163.084" y="479.707"/>
      <point x="163.084" y="472.432" type="curve" smooth="yes"/>
      <point x="163.084" y="469.601"/>
      <point x="164.671" y="462.982"/>
      <point x="166.174" y="458.718" type="curve" smooth="yes"/>
      <point x="166.174" y="458.718"/>
      <point x="196.08" y="375.416"/>
      <point x="227.083" y="294.426" type="curve" smooth="yes"/>
      <point x="251.698" y="230.121"/>
      <point x="290.856" y="134.688"/>
      <point x="304.413" y="100.408" type="curve"/>
      <point x="320.746" y="138.17"/>
      <point x="361.335" y="225.991"/>
      <point x="389.602" y="293.577" type="curve" smooth="yes"/>
      <point x="421.822" y="370.619"/>
      <point x="444.974" y="441.927"/>
      <point x="445" y="442" type="curve" smooth="yes"/>
      <point x="446.935" y="447.092"/>
      <point x="449.031" y="458.214"/>
      <point x="449.031" y="461.52" type="curve" smooth="yes"/>
      <point x="449.031" y="470.128"/>
      <point x="438.592" y="488.201"/>
      <point x="419.136" y="488.462" type="curve" smooth="yes"/>
      <point x="411.229" y="488.554" type="line"/>
      <point x="411.229" y="506.855" type="line"/>
      <point x="534.852" y="506.855" type="line"/>
      <point x="534.852" y="488.929" type="line"/>
      <point x="524.643" y="488.24" type="line" smooth="yes"/>
      <point x="512.325" y="487.41"/>
      <point x="503.322" y="471.217"/>
      <point x="500" y="462" type="curve" smooth="yes"/>
      <point x="499.165" y="459.682"/>
      <point x="465.532" y="382.899"/>
      <point x="426.733" y="289.695" type="curve" smooth="yes"/>
      <point x="393.369" y="209.545"/>
      <point x="351.186" y="119.896"/>
    </contour>
  </outline>
</glyph>
<glyph name="bar" format="1">
  <advance width="200"/>
  <unicode hex="007C"/>
  <outline>
    <contour>
      <point x="134" y="-47" type="line" smooth="yes"/>
      <point x="134" y="-63.1254"/>
      <point x="111.406" y="-64.4983"/>
      <point x="100" y="-64.4983" type="curve" smooth="yes"/>
      <point x="88.6824" y="-64.4983"/>
      <point x="67" y="-62.7821"/>
      <point x="67" y="-47" type="curve" smooth="yes"/>
      <point x="67" y="736" type="line" smooth="yes"/>
      <point x="67" y="751.856"/>
      <point x="90.8895" y="752.376"/>
      <point x="102" y="752.376" type="curve" smooth="yes"/>
      <point x="112.624" y="752.376"/>
      <point x="134" y="751.375"/>
      <point x="134" y="736" type="curve" smooth="yes"/>
    </contour>
  </outline>
</glyph>
<glyph name="asciitilde" format="1">
  <advance width="510"/>
  <unicode hex="007E"/>
  <outline>
    <contour>
      <point x="152" y="369.487" type="curve" smooth="yes"/>
      <point x="235.086" y="369.487"/>
      <point x="251.468" y="304.987"/>
      <point x="328" y="304.987" type="curve" smooth="yes"/>
      <point x="383.951" y="304.987"/>
      <point x="429.365" y="354.379"/>
      <point x="446" y="354.379" type="curve" smooth="yes"/>
      <point x="453.179" y="354.379"/>
      <point x="461.187" y="352.212"/>
      <point x="461.187" y="342" type="curve" smooth="yes"/>
      <point x="461.187" y="312.269"/>
      <point x="387.826" y="229.362"/>
      <point x="318" y="229.362" type="curve" smooth="yes"/>
      <point x="234.406" y="229.362"/>
      <point x="218.962" y="294.54"/>
      <point x="147" y="294.54" type="curve" smooth="yes"/>
      <point x="103.566" y="294.54"/>
      <point x="60.4268" y="253.855"/>
      <point x="34" y="253.855" type="curve" smooth="yes"/>
      <point x="23.918" y="253.855"/>
      <point x="18.8477" y="261.241"/>
      <point x="18.8477" y="271" type="curve" smooth="yes"/>
      <point x="18.8477" y="284.519"/>
      <point x="86.6895" y="369.487"/>
    </contour>
  </outline>
</glyph>
<glyph name="exclamdown" format="1">
  <advance width="238"/>
  <unicode hex="00A1"/>
  <outline>
    <contour>
      <point x="178.857" y="463.434" type="curve" smooth="yes"/>
      <point x="178.857" y="431.581"/>
      <point x="153.19" y="405.434"/>
      <point x="120.351" y="405.434" type="curve" smooth="yes"/>
      <point x="88.4697" y="405.434"/>
      <point x="62.3506" y="431.553"/>
      <point x="62.3506" y="463.434" type="curve" smooth="yes"/>
      <point x="62.3506" y="495.302"/>
      <point x="88.4512" y="521.533"/>
      <point x="120.351" y="521.533" type="curve" smooth="yes"/>
      <point x="153.208" y="521.533"/>
      <point x="178.857" y="495.273"/>
    </contour>
    <contour>
      <point x="70.3506" y="-197.432" type="curve"/>
      <point x="91.3574" y="269.749" type="line"/>
      <point x="92.2178" y="286.396"/>
      <point x="102.906" y="300.316"/>
      <point x="119.688" y="300.721" type="curve" smooth="yes"/>
      <point x="119.851" y="300.725" type="line"/>
      <point x="120.014" y="300.722" type="line" smooth="yes"/>
      <point x="137.486" y="300.332"/>
      <point x="148.365" y="286.893"/>
      <point x="149.342" y="269.783" type="curve"/>
      <point x="172.351" y="-197.417" type="line"/>
      <point x="172.351" y="-230.719"/>
      <point x="146.234" y="-248"/>
      <point x="120.929" y="-248" type="curve" smooth="yes"/>
      <point x="95.2373" y="-248"/>
      <point x="70.3506" y="-230.219"/>
    </contour>
  </outline>
</glyph>
<glyph name="currency" format="1">
  <advance width="427"/>
  <unicode hex="00A4"/>
  <outline>
    <contour>
      <point x="113" y="222" type="curve" smooth="yes"/>
      <point x="113" y="166.662"/>
      <point x="158.527" y="121.136"/>
      <point x="213.865" y="121.136" type="curve" smooth="yes"/>
      <point x="269.204" y="121.136"/>
      <point x="314.73" y="166.662"/>
      <point x="314.73" y="222" type="curve" smooth="yes"/>
      <point x="314.73" y="277.339"/>
      <point x="269.203" y="322.865"/>
      <point x="213.865" y="322.865" type="curve" smooth="yes"/>
      <point x="158.527" y="322.865"/>
      <point x="113" y="277.339"/>
    </contour>
    <contour>
      <point x="340.892" y="388.35" type="line" smooth="yes"/>
      <point x="351.015" y="398.473"/>
      <point x="365.26" y="385.64"/>
      <point x="371.95" y="378.95" type="curve" smooth="yes"/>
      <point x="378.28" y="372.62"/>
      <point x="393.238" y="356.865"/>
      <point x="382.921" y="346.55" type="curve"/>
      <point x="351.879" y="314.041" type="line"/>
      <point x="370.075" y="287.2"/>
      <point x="380.615" y="255.173"/>
      <point x="380.615" y="220.655" type="curve" smooth="yes"/>
      <point x="380.615" y="184.254"/>
      <point x="368.467" y="150.328"/>
      <point x="349.06" y="123.244" type="curve"/>
      <point x="382.63" y="91.2328" type="line"/>
      <point x="383.176" y="90.1403" type="line" smooth="yes"/>
      <point x="388.929" y="78.6347"/>
      <point x="378.799" y="65.8994"/>
      <point x="370.95" y="58.0506" type="curve" smooth="yes"/>
      <point x="363.776" y="50.8761"/>
      <point x="350.028" y="39.9668"/>
      <point x="340.007" y="49.9884" type="curve"/>
      <point x="306.444" y="82.0157" type="line"/>
      <point x="279.643" y="64.0132"/>
      <point x="247.896" y="53.6553"/>
      <point x="213.615" y="53.6553" type="curve" smooth="yes"/>
      <point x="179.122" y="53.6553"/>
      <point x="146.892" y="64.543"/>
      <point x="120.563" y="82.1649" type="curve"/>
      <point x="85.4218" y="43.824" type="line"/>
      <point x="80.6989" y="46.1852" type="line" smooth="yes"/>
      <point x="71.7126" y="50.6778"/>
      <point x="63.7113" y="55.3892"/>
      <point x="57.0498" y="62.0507" type="curve" smooth="yes"/>
      <point x="50.3692" y="68.7324"/>
      <point x="46.8275" y="75.8267"/>
      <point x="44.4451" y="82.9752" type="curve" smooth="yes"/>
      <point x="43.1435" y="86.8804" type="line"/>
      <point x="77.4142" y="124.301" type="line"/>
      <point x="57.9383" y="151.752"/>
      <point x="46.6152" y="184.847"/>
      <point x="46.6152" y="220.655" type="curve" smooth="yes"/>
      <point x="46.6152" y="255.009"/>
      <point x="57.9461" y="288.132"/>
      <point x="74.9182" y="313.399" type="curve"/>
      <point x="41.2127" y="347.509" type="line"/>
      <point x="30.7792" y="357.939"/>
      <point x="49.0554" y="373.954"/>
      <point x="55.0503" y="379.95" type="curve" smooth="yes"/>
      <point x="60.0169" y="384.916"/>
      <point x="72.7766" y="399.776"/>
      <point x="83.1564" y="389.393" type="curve"/>
      <point x="116.114" y="356.036" type="line"/>
      <point x="144.724" y="376.538"/>
      <point x="177.291" y="387.655"/>
      <point x="213.615" y="387.655" type="curve" smooth="yes"/>
      <point x="249.776" y="387.655"/>
      <point x="283.438" y="375.699"/>
      <point x="310.487" y="356.489" type="curve"/>
    </contour>
  </outline>
</glyph>
<glyph name="yen" format="1">
  <advance width="629"/>
  <unicode hex="00A5"/>
  <outline>
    <contour>
      <point x="260.722" y="47.9229" type="curve" smooth="yes"/>
      <point x="261.738" y="109.124"/>
      <point x="263.229" y="166.548"/>
      <point x="263.229" y="225.72" type="curve" smooth="yes"/>
      <point x="263.229" y="246.649"/>
      <point x="263.005" y="267.972"/>
      <point x="262.514" y="288.99" type="curve"/>
      <point x="95.3965" y="288.99" type="line"/>
      <point x="95.3965" y="326.609" type="line"/>
      <point x="261.324" y="326.609" type="line" smooth="yes"/>
      <point x="261.224" y="329.083"/>
      <point x="261.119" y="331.545"/>
      <point x="261.011" y="333.995" type="curve" smooth="yes"/>
      <point x="253.742" y="347.606"/>
      <point x="246.41" y="361.139"/>
      <point x="239.076" y="374.49" type="curve"/>
      <point x="95.3965" y="374.49" type="line"/>
      <point x="95.3965" y="412.109" type="line"/>
      <point x="218.146" y="412.109" type="line"/>
      <point x="174.322" y="489.863"/>
      <point x="132.621" y="557.527"/>
      <point x="106.692" y="592.763" type="curve" smooth="yes"/>
      <point x="99.5049" y="602.53"/>
      <point x="94.2402" y="606.924"/>
      <point x="87.2607" y="608.434" type="curve" smooth="yes"/>
      <point x="80.6855" y="609.856"/>
      <point x="74.0225" y="610.299"/>
      <point x="67.1045" y="610.39" type="curve" smooth="yes"/>
      <point x="61.1992" y="610.469" type="line"/>
      <point x="61.1963" y="634.994" type="line"/>
      <point x="243.737" y="634.994" type="line"/>
      <point x="243.737" y="610.469" type="line"/>
      <point x="237.833" y="610.391" type="line" smooth="yes"/>
      <point x="231.063" y="610.3"/>
      <point x="224.66" y="609.706"/>
      <point x="218.67" y="608.43" type="curve" smooth="yes"/>
      <point x="208.663" y="606.297"/>
      <point x="203.829" y="603.505"/>
      <point x="203.829" y="597.267" type="curve" smooth="yes"/>
      <point x="203.829" y="592.935"/>
      <point x="206.235" y="585.25"/>
      <point x="213.943" y="573.712" type="curve" smooth="yes"/>
      <point x="214.049" y="573.555" type="line"/>
      <point x="322.002" y="387.477" type="line"/>
      <point x="437.854" y="570.36" type="line"/>
      <point x="437.973" y="570.522" type="line" smooth="yes"/>
      <point x="449.952" y="586.888"/>
      <point x="453.502" y="596.644"/>
      <point x="453.502" y="601.072" type="curve" smooth="yes"/>
      <point x="453.502" y="605.448"/>
      <point x="450.307" y="607.139"/>
      <point x="440.619" y="609.222" type="curve" smooth="yes"/>
      <point x="435.153" y="610.396"/>
      <point x="429.461" y="610.228"/>
      <point x="422.183" y="610.325" type="curve" smooth="yes"/>
      <point x="416.277" y="610.404" type="line"/>
      <point x="416.277" y="634.93" type="line"/>
      <point x="554.957" y="634.93" type="line"/>
      <point x="554.957" y="610.402" type="line"/>
      <point x="549.051" y="610.324" type="line" smooth="yes"/>
      <point x="529.027" y="610.06"/>
      <point x="514.314" y="602.283"/>
      <point x="508.196" y="593.446" type="curve" smooth="yes"/>
      <point x="389.472" y="412.109" type="line"/>
      <point x="514.347" y="412.109" type="line"/>
      <point x="514.347" y="374.49" type="line"/>
      <point x="364.841" y="374.49" type="line"/>
      <point x="343.98" y="342.629" type="line" smooth="yes"/>
      <point x="343.742" y="337.29"/>
      <point x="343.524" y="331.95"/>
      <point x="343.325" y="326.609" type="curve"/>
      <point x="514.347" y="326.609" type="line"/>
      <point x="514.347" y="288.99" type="line"/>
      <point x="342.226" y="288.99" type="line"/>
      <point x="341.768" y="267.678"/>
      <point x="341.572" y="246.319"/>
      <point x="341.572" y="224.864" type="curve" smooth="yes"/>
      <point x="341.572" y="166.255"/>
      <point x="342.93" y="107.436"/>
      <point x="343.983" y="48.3799" type="curve" smooth="yes"/>
      <point x="343.983" y="38.248"/>
      <point x="349.296" y="30.374"/>
      <point x="363.118" y="27.5781" type="curve" smooth="yes"/>
      <point x="369.487" y="26.29"/>
      <point x="376.055" y="25.6953"/>
      <point x="382.849" y="25.6045" type="curve" smooth="yes"/>
      <point x="388.753" y="25.5244" type="line"/>
      <point x="388.753" y="0" type="line"/>
      <point x="216" y="0" type="line"/>
      <point x="216" y="25.5244" type="line"/>
      <point x="221.905" y="25.6045" type="line" smooth="yes"/>
      <point x="228.7" y="25.6953"/>
      <point x="235.268" y="26.2881"/>
      <point x="241.634" y="27.5781" type="curve" smooth="yes"/>
      <point x="255.516" y="30.3906"/>
      <point x="260.722" y="39.3477"/>
    </contour>
  </outline>
</glyph>
<glyph name="macron" format="1">
  <advance width="403"/>
  <unicode hex="00AF"/>
  <outline>
    <contour>
      <point x="60.1453" y="507.419" type="line"/>
      <point x="60.1453" y="507.419"/>
      <point x="65.5157" y="557"/>
      <point x="87" y="557" type="curve" smooth="yes"/>
      <point x="347.132" y="557" type="line"/>
      <point x="347.132" y="549.284" type="line" smooth="yes"/>
      <point x="347.132" y="545.51"/>
      <point x="343.779" y="499"/>
      <point x="320" y="499" type="curve" smooth="yes"/>
      <point x="58.4026" y="499" type="line"/>
    </contour>
  </outline>
</glyph>
<glyph name="paragraph" format="1">
  <advance width="512"/>
  <unicode hex="00B6"/>
  <outline>
    <contour>
      <point x="249.025" y="-3" type="line"/>
      <point x="250.212" y="109.719"/>
      <point x="250.987" y="269.698"/>
      <point x="250.987" y="382" type="curve" smooth="yes"/>
      <point x="250.987" y="391.644"/>
      <point x="250.981" y="391.293"/>
      <point x="250.971" y="400.924" type="curve" smooth="yes"/>
      <point x="250.963" y="408.112" type="line"/>
      <point x="243.777" y="407.913" type="line" smooth="yes"/>
      <point x="220.328" y="407.264"/>
      <point x="196.179" y="405.881"/>
      <point x="184.393" y="405.881" type="curve" smooth="yes"/>
      <point x="121.575" y="405.881"/>
      <point x="63.8711" y="470.393"/>
      <point x="63.8711" y="574.736" type="curve" smooth="yes"/>
      <point x="63.8711" y="664.664"/>
      <point x="138.968" y="733.683"/>
      <point x="214.393" y="733.683" type="curve" smooth="yes"/>
      <point x="220.005" y="733.683"/>
      <point x="231.728" y="733.534"/>
      <point x="244.982" y="733.333" type="curve"/>
      <point x="459.997" y="733.333" type="line"/>
      <point x="459.997" y="721.224" type="line"/>
      <point x="454.558" y="720.897"/>
      <point x="447.321" y="720.105"/>
      <point x="441.236" y="718.872" type="curve" smooth="yes"/>
      <point x="419.794" y="714.528"/>
      <point x="408.351" y="699.105"/>
      <point x="407.778" y="683.111" type="curve"/>
      <point x="405.741" y="586.729"/>
      <point x="404.915" y="490.465"/>
      <point x="404.915" y="394" type="curve" smooth="yes"/>
      <point x="404.915" y="281.148"/>
      <point x="406.021" y="113.646"/>
      <point x="407.677" y="-3" type="curve"/>
      <point x="356" y="-3" type="line"/>
      <point x="356" y="707" type="line"/>
      <point x="302" y="707" type="line"/>
      <point x="302" y="-3" type="line"/>
    </contour>
  </outline>
</glyph>
<glyph name="threequarters" format="1">
  <advance width="519"/>
  <unicode hex="00BE"/>
  <outline>
    <contour>
      <point x="404.06" y="284.987" type="line"/>
      <point x="383.994" y="257.734"/>
      <point x="357.963" y="227.944"/>
      <point x="338.969" y="205.774" type="curve"/>
      <point x="362.368" y="205.76"/>
      <point x="389.85" y="205.727"/>
      <point x="404.06" y="205.714" type="curve"/>
    </contour>
    <contour>
      <point x="418.641" y="353.447" type="curve" smooth="yes"/>
      <point x="423.769" y="360.975"/>
      <point x="429.159" y="364.58"/>
      <point x="435.529" y="364.58" type="curve" smooth="yes"/>
      <point x="439.354" y="364.58"/>
      <point x="451.379" y="363.188"/>
      <point x="451.379" y="350.72" type="curve" smooth="yes"/>
      <point x="451.379" y="205.33" type="line"/>
      <point x="465.692" y="205.517"/>
      <point x="477.279" y="206.121"/>
      <point x="486.84" y="207.714" type="curve" smooth="yes"/>
      <point x="495.342" y="209.131" type="line"/>
      <point x="493.725" y="174.22" type="line"/>
      <point x="450.399" y="174.22" type="line"/>
      <point x="450.399" y="88.9199" type="line" smooth="yes"/>
      <point x="450.399" y="85.8379"/>
      <point x="448.179" y="78"/>
      <point x="440.46" y="78" type="curve" smooth="yes"/>
      <point x="414" y="78" type="line" smooth="yes"/>
      <point x="407.983" y="78"/>
      <point x="404.06" y="83.8525"/>
      <point x="404.06" y="87.9395" type="curve" smooth="yes"/>
      <point x="404.06" y="174.22" type="line"/>
      <point x="290.45" y="174.22" type="line" smooth="yes"/>
      <point x="285.662" y="174.22"/>
      <point x="279.781" y="175.68"/>
      <point x="279.781" y="182.649" type="curve" smooth="yes"/>
      <point x="279.781" y="186.448"/>
      <point x="281.339" y="189.882"/>
      <point x="283.627" y="192.552" type="curve"/>
      <point x="328.757" y="247.001"/>
      <point x="380.803" y="299.601"/>
    </contour>
    <contour>
      <point x="39.3408" y="580.45" type="curve"/>
      <point x="29.0249" y="587.766" type="line"/>
      <point x="31.5379" y="591.387"/>
      <point x="64.0798" y="646.05"/>
      <point x="122.39" y="646.05" type="curve" smooth="yes"/>
      <point x="163.419" y="646.05"/>
      <point x="190.92" y="624.774"/>
      <point x="190.92" y="591.03" type="curve" smooth="yes"/>
      <point x="190.92" y="561.709"/>
      <point x="164.489" y="540.524"/>
      <point x="140.597" y="521.057" type="curve"/>
      <point x="182.51" y="515.554"/>
      <point x="222" y="491.124"/>
      <point x="222" y="442" type="curve" smooth="yes"/>
      <point x="222" y="384.374"/>
      <point x="164.19" y="351.02"/>
      <point x="102.79" y="351.02" type="curve" smooth="yes"/>
      <point x="73.8277" y="351.02"/>
      <point x="26.6992" y="366.188"/>
      <point x="26.6992" y="385.58" type="curve" smooth="yes"/>
      <point x="26.6992" y="386.424"/>
      <point x="26.9557" y="389.215"/>
      <point x="27.9285" y="391.161" type="curve" smooth="yes"/>
      <point x="28.1742" y="391.652" type="line"/>
      <point x="28.4936" y="392.099" type="line" smooth="yes"/>
      <point x="31.007" y="395.617"/>
      <point x="35.0312" y="400.38"/>
      <point x="43.9697" y="400.38" type="curve" smooth="yes"/>
      <point x="50.8047" y="400.38"/>
      <point x="57.6221" y="397.648"/>
      <point x="64.3613" y="392.594" type="curve"/>
      <point x="72.7617" y="386.193"/>
      <point x="90.5117" y="370.74"/>
      <point x="109.79" y="370.74" type="curve" smooth="yes"/>
      <point x="148.809" y="370.74"/>
      <point x="177.13" y="404.211"/>
      <point x="177.13" y="427.79" type="curve" smooth="yes"/>
      <point x="177.13" y="462.543"/>
      <point x="150.202" y="488.91"/>
      <point x="112.17" y="488.91" type="curve" smooth="yes"/>
      <point x="95.0146" y="488.91"/>
      <point x="78.9932" y="483.526"/>
      <point x="71.5205" y="483.526" type="curve" smooth="yes"/>
      <point x="65.2656" y="483.526"/>
      <point x="60.2207" y="486.36"/>
      <point x="60.2207" y="491.48" type="curve" smooth="yes"/>
      <point x="60.2207" y="495.238"/>
      <point x="63.1278" y="498.24"/>
      <point x="66.2471" y="500.065" type="curve" smooth="yes"/>
      <point x="81.6939" y="509.105"/>
      <point x="91.6758" y="514.242"/>
      <point x="113.863" y="532.485" type="curve" smooth="yes"/>
      <point x="132.548" y="547.849"/>
      <point x="146.3" y="572.75"/>
      <point x="146.3" y="586.29" type="curve" smooth="yes"/>
      <point x="146.3" y="607.887"/>
      <point x="134.33" y="621.47"/>
      <point x="114.59" y="621.47" type="curve" smooth="yes"/>
      <point x="84.7998" y="621.47"/>
      <point x="55.3711" y="602.795"/>
    </contour>
    <contour>
      <point x="382.571" y="651" type="line"/>
      <point x="427.065" y="651" type="line"/>
      <point x="110.429" y="-17" type="line"/>
      <point x="65.9354" y="-17" type="line"/>
    </contour>
  </outline>
</glyph>
<glyph name="multiply" format="1">
  <advance width="418"/>
  <unicode hex="00D7"/>
  <outline>
    <contour>
      <point x="203.302" y="249.254" type="line" smooth="yes"/>
      <point x="118.172" y="168.948" type="line" smooth="yes"/>
      <point x="115.53" y="166.457"/>
      <point x="112.591" y="165.461"/>
      <point x="109.573" y="165.461" type="curve" smooth="yes"/>
      <point x="101.145" y="165.461"/>
      <point x="92.0976" y="173.224"/>
      <point x="87.1729" y="177.87" type="curve" smooth="yes"/>
      <point x="82.3946" y="182.376"/>
      <point x="72.6755" y="191.92"/>
      <point x="72.6755" y="200.555" type="curve" smooth="yes"/>
      <point x="72.6755" y="203.361"/>
      <point x="73.7019" y="206.071"/>
      <point x="76.2578" y="208.481" type="curve" smooth="yes"/>
      <point x="159.932" y="287.4" type="line" smooth="yes"/>
      <point x="160.54" y="287.974"/>
      <point x="161.081" y="288.95"/>
      <point x="161.191" y="289.231" type="curve"/>
      <point x="83.457" y="362.547" type="line" smooth="yes"/>
      <point x="82.2162" y="364.888"/>
      <point x="81.257" y="367.592"/>
      <point x="81.257" y="370.282" type="curve" smooth="yes"/>
      <point x="81.257" y="379.093"/>
      <point x="88.9358" y="387.888"/>
      <point x="95.1748" y="393.772" type="curve" smooth="yes"/>
      <point x="100.27" y="398.579"/>
      <point x="108.66" y="405.187"/>
      <point x="116.723" y="405.187" type="curve" smooth="yes"/>
      <point x="120.01" y="405.187"/>
      <point x="123.242" y="404.089"/>
      <point x="126.175" y="401.322" type="curve" smooth="yes"/>
      <point x="201.847" y="325.65" type="line" smooth="yes"/>
      <point x="202.746" y="324.751"/>
      <point x="203.199" y="324.383"/>
      <point x="203.561" y="324.383" type="curve" smooth="yes"/>
      <point x="203.988" y="324.383"/>
      <point x="204.289" y="324.895"/>
      <point x="205.044" y="325.65" type="curve" smooth="yes"/>
      <point x="283.556" y="404.161" type="line"/>
      <point x="285" y="405"/>
      <point x="287" y="405.906"/>
      <point x="290.068" y="405.906" type="curve" smooth="yes"/>
      <point x="300.004" y="405.906"/>
      <point x="306.057" y="402.224"/>
      <point x="312.718" y="395.94" type="curve" smooth="yes"/>
      <point x="319" y="390.014"/>
      <point x="327.414" y="376.729"/>
      <point x="327.414" y="369.521" type="curve" smooth="yes"/>
      <point x="327.414" y="366.838"/>
      <point x="327.057" y="365.073"/>
      <point x="325.69" y="363.331" type="curve" smooth="yes"/>
      <point x="246.959" y="289.063" type="line" smooth="yes"/>
      <point x="246.401" y="288.537"/>
      <point x="246.099" y="288.23"/>
      <point x="246.099" y="288.23" type="curve"/>
      <point x="324.812" y="213.978" type="line" smooth="yes"/>
      <point x="327.06" y="211.858"/>
      <point x="327.98" y="209.496"/>
      <point x="327.98" y="207.039" type="curve" smooth="yes"/>
      <point x="327.98" y="198.061"/>
      <point x="315.696" y="187.802"/>
      <point x="310.989" y="183.362" type="curve" smooth="yes"/>
      <point x="307.257" y="179.842"/>
      <point x="299.113" y="171.054"/>
      <point x="290.903" y="171.054" type="curve" smooth="yes"/>
      <point x="288.19" y="171.054"/>
      <point x="285.469" y="172.014"/>
      <point x="282.898" y="174.44" type="curve" smooth="yes"/>
      <point x="203.589" y="249.254" type="line" smooth="yes"/>
    </contour>
  </outline>
</glyph>
<glyph name="eth" format="1">
  <advance width="534"/>
  <unicode hex="00F0"/>
  <outline>
    <contour>
      <point x="327" y="456" type="curve"/>
      <point x="292.034" y="539.045"/>
      <point x="170.435" y="610.637"/>
      <point x="87.625" y="633.153" type="curve"/>
      <point x="102" y="661.646" type="line" smooth="yes"/>
      <point x="160.008" y="647.204"/>
      <point x="253.868" y="614.852"/>
      <point x="306.54" y="574.335" type="curve" smooth="yes"/>
      <point x="383.289" y="515.298"/>
      <point x="482.733" y="408.059"/>
      <point x="482.733" y="229.34" type="curve" smooth="yes"/>
      <point x="482.733" y="50.8838"/>
      <point x="399.798" y="-11.0713"/>
      <point x="268.81" y="-11.0713" type="curve" smooth="yes"/>
      <point x="140.78" y="-11.0713"/>
      <point x="47.627" y="55.4961"/>
      <point x="47.627" y="229.408" type="curve" smooth="yes"/>
      <point x="47.627" y="397.969"/>
      <point x="132.079" y="464.645"/>
      <point x="259.709" y="464.645" type="curve" smooth="yes"/>
      <point x="297" y="464.645"/>
      <point x="313" y="459"/>
    </contour>
    <contour>
      <point x="129.795" y="248.953" type="curve" smooth="yes"/>
      <point x="129.795" y="106.951"/>
      <point x="170.779" y="21.4775"/>
      <point x="272.715" y="21.4775" type="curve" smooth="yes"/>
      <point x="371.245" y="21.4775"/>
      <point x="400.567" y="133.379"/>
      <point x="400.567" y="212.81" type="curve" smooth="yes"/>
      <point x="400.567" y="355.021"/>
      <point x="366.85" y="445.746"/>
      <point x="259.468" y="445.746" type="curve" smooth="yes"/>
      <point x="172.856" y="445.746"/>
      <point x="129.795" y="359.589"/>
    </contour>
    <contour>
      <point x="177.827" y="536.662" type="line"/>
      <point x="336.964" y="641.253" type="line"/>
      <point x="356.137" y="613.106" type="line"/>
      <point x="197" y="508.515" type="line"/>
    </contour>
  </outline>
</glyph>
<glyph name="Hbar" format="1">
  <advance width="817"/>
  <unicode hex="0126"/>
  <outline>
    <contour>
      <point x="40.6816" y="547.406" type="curve" smooth="yes"/>
      <point x="804.813" y="547.406" type="line"/>
      <point x="804.813" y="540.816" type="line" smooth="yes"/>
      <point x="804.813" y="537"/>
      <point x="801.354" y="497.46"/>
      <point x="777.682" y="497.46" type="curve" smooth="yes"/>
      <point x="12" y="497.46" type="line"/>
      <point x="13.8408" y="505.784" type="line" smooth="yes"/>
      <point x="13.8408" y="505.784"/>
      <point x="19.3379" y="547.406"/>
    </contour>
    <component base="H"/>
  </outline>
</glyph>
<glyph name="hbar" format="1">
  <advance width="584"/>
  <unicode hex="0127"/>
  <outline>
    <contour>
      <point x="379" y="619" type="line"/>
      <point x="379" y="616.771"/>
      <point x="378.936" y="610.741"/>
      <point x="378.226" y="606.199" type="curve"/>
      <point x="375.508" y="592.44"/>
      <point x="370.361" y="570"/>
      <point x="349.361" y="570" type="curve" smooth="yes"/>
      <point x="22" y="570" type="line"/>
      <point x="23.9502" y="578.556" type="line" smooth="yes"/>
      <point x="23.9502" y="578.556"/>
      <point x="30" y="619"/>
      <point x="50.7754" y="619" type="curve" smooth="yes"/>
    </contour>
    <component base="h"/>
  </outline>
</glyph>
<glyph name="dotlessi" format="1">
  <advance width="265"/>
  <unicode hex="0131"/>
  <outline>
    <contour>
      <point x="173.933" y="43.4766" type="line"/>
      <point x="175.282" y="36.8906"/>
      <point x="178.2" y="25.1299"/>
      <point x="187.529" y="21.292" type="curve" smooth="yes"/>
      <point x="192.272" y="19.341"/>
      <point x="197.771" y="18.8389"/>
      <point x="203.193" y="18.7695" type="curve" smooth="yes"/>
      <point x="210.101" y="18.6807" type="line"/>
      <point x="210.101" y="0" type="line"/>
      <point x="56" y="0" type="line"/>
      <point x="56" y="18.6797" type="line"/>
      <point x="62.9072" y="18.7686" type="line" smooth="yes"/>
      <point x="68.332" y="18.8379"/>
      <point x="73.8149" y="19.3765"/>
      <point x="78.5723" y="21.291" type="curve" smooth="yes"/>
      <point x="88.3105" y="25.21"/>
      <point x="91.0801" y="37.8428"/>
      <point x="92.2285" y="43.7812" type="curve"/>
      <point x="92.2285" y="435.724" type="line" smooth="yes"/>
      <point x="92.2285" y="451.166"/>
      <point x="89.0156" y="461.582"/>
      <point x="79.4922" y="464.459" type="curve" smooth="yes"/>
      <point x="74.6797" y="465.913"/>
      <point x="69.3438" y="466.613"/>
      <point x="65.4092" y="466.613" type="curve" smooth="yes"/>
      <point x="58.4092" y="466.613" type="line"/>
      <point x="58.4092" y="481.801" type="line"/>
      <point x="156.188" y="508.675" type="line" smooth="yes"/>
      <point x="157.912" y="509.162"/>
      <point x="159.56" y="509.353"/>
      <point x="161" y="509.353" type="curve" smooth="yes"/>
      <point x="173.768" y="509.353"/>
      <point x="173.989" y="495.244"/>
      <point x="174.027" y="485.733" type="curve" smooth="yes"/>
    </contour>
  </outline>
</glyph>
<glyph name="Lslash" format="1">
  <advance width="617"/>
  <unicode hex="0141"/>
  <outline>
    <contour>
      <point x="50" y="347" type="line"/>
      <point x="342" y="576" type="line"/>
      <point x="342" y="519" type="line"/>
      <point x="50" y="290" type="line"/>
    </contour>
    <component base="L"/>
  </outline>
</glyph>
<glyph name="uni01E5" format="1">
  <advance width="431"/>
  <unicode hex="01E5"/>
  <outline>
    <contour>
      <point x="439.104" y="287.173" type="curve" smooth="yes"/>
      <point x="439.104" y="105.467"/>
      <point x="284.286" y="117.312"/>
      <point x="179.021" y="66.835" type="curve" smooth="yes"/>
      <point x="174.935" y="64.6094"/>
      <point x="174.455" y="62.5371"/>
      <point x="174.455" y="62.1104" type="curve" smooth="yes"/>
      <point x="174.455" y="60.6768"/>
      <point x="175.228" y="57.3877"/>
      <point x="183.947" y="54.9932" type="curve"/>
      <point x="187.835" y="53.7822"/>
      <point x="209.649" y="52.9268"/>
      <point x="219.523" y="52.9268" type="curve" smooth="yes"/>
      <point x="219.769" y="52.9268" type="line"/>
      <point x="320.887" y="46.5283" type="line"/>
      <point x="426.712" y="36.1328"/>
      <point x="499.93" y="11.8311"/>
      <point x="499.93" y="-74.9111" type="curve" smooth="yes"/>
      <point x="557.907" y="-75" type="line"/>
      <point x="557.907" y="-82.7158" type="line" smooth="yes"/>
      <point x="557.907" y="-86.9805"/>
      <point x="554.152" y="-129"/>
      <point x="530.775" y="-129" type="curve" smooth="yes"/>
      <point x="488.185" y="-129" type="line"/>
      <point x="451.805" y="-207.166"/>
      <point x="339.65" y="-245.607"/>
      <point x="237.51" y="-245.607" type="curve" smooth="yes"/>
      <point x="133.288" y="-245.607"/>
      <point x="21.9014" y="-226.129"/>
      <point x="21.9014" y="-137.368" type="curve" smooth="yes"/>
      <point x="21.9014" y="-134.698"/>
      <point x="22.1709" y="-130.371"/>
      <point x="22.2969" y="-129" type="curve"/>
      <point x="-35" y="-129" type="line"/>
      <point x="-33.0498" y="-120.444" type="line"/>
      <point x="-33.0498" y="-120.444"/>
      <point x="-27.4043" y="-75"/>
      <point x="-6.22461" y="-75" type="curve" smooth="yes"/>
      <point x="48.666" y="-75" type="line"/>
      <point x="81.9727" y="-41.2949"/>
      <point x="138.457" y="-23.3027"/>
      <point x="185.591" y="-9.97656" type="curve"/>
      <point x="161.842" y="-7.60645"/>
      <point x="143.908" y="-4.91211"/>
      <point x="128.25" y="-1.86035" type="curve" smooth="yes"/>
      <point x="98.3214" y="3.81348"/>
      <point x="61.5566" y="15.3936"/>
      <point x="61.5566" y="41.1318" type="curve" smooth="yes"/>
      <point x="61.5566" y="79.8955"/>
      <point x="146.253" y="101.177"/>
      <point x="190.861" y="113.346" type="curve"/>
      <point x="117.417" y="128.987"/>
      <point x="47.5508" y="184.804"/>
      <point x="47.5508" y="312.19" type="curve" smooth="yes"/>
      <point x="47.5508" y="429.479"/>
      <point x="115.877" y="485.887"/>
      <point x="202.561" y="497.924" type="curve" smooth="yes"/>
      <point x="215.846" y="499.82"/>
      <point x="229.645" y="500.067"/>
      <point x="242.73" y="500.067" type="curve" smooth="yes"/>
      <point x="283.539" y="500.067"/>
      <point x="326.216" y="489.751"/>
      <point x="360.137" y="466.489" type="curve"/>
      <point x="391.876" y="485.613"/>
      <point x="420.408" y="497"/>
      <point x="459.927" y="497" type="curve" smooth="yes"/>
      <point x="473.589" y="497"/>
      <point x="481.775" y="483.526"/>
      <point x="481.775" y="470.691" type="curve" smooth="yes"/>
      <point x="481.775" y="455.14"/>
      <point x="472.521" y="443.985"/>
      <point x="464.968" y="436.144" type="curve" smooth="yes"/>
      <point x="453.674" y="424.419"/>
      <point x="436.916" y="418.282"/>
      <point x="415.902" y="418.282" type="curve" smooth="yes"/>
      <point x="413.08" y="418.282"/>
      <point x="407.701" y="418.579"/>
      <point x="406.317" y="418.694" type="curve"/>
      <point x="427.642" y="385.373"/>
      <point x="439.104" y="343.012"/>
    </contour>
    <contour>
      <point x="136.874" y="328.277" type="curve" smooth="yes"/>
      <point x="136.874" y="210.254"/>
      <point x="171.998" y="142.907"/>
      <point x="256.162" y="142.907" type="curve" smooth="yes"/>
      <point x="337.179" y="142.907"/>
      <point x="353.801" y="204.669"/>
      <point x="353.801" y="288" type="curve" smooth="yes"/>
      <point x="353.801" y="410.141"/>
      <point x="321.925" y="457.089"/>
      <point x="230.025" y="457.089" type="curve" smooth="yes"/>
      <point x="161.626" y="457.089"/>
      <point x="136.874" y="394.315"/>
    </contour>
    <contour>
      <point x="237.839" y="-206.951" type="curve" smooth="yes"/>
      <point x="319.479" y="-206.951"/>
      <point x="407.344" y="-175.508"/>
      <point x="430.234" y="-129" type="curve"/>
      <point x="103.547" y="-129" type="line"/>
      <point x="106.31" y="-181.277"/>
      <point x="165.256" y="-206.951"/>
    </contour>
    <contour>
      <point x="250.424" y="-17.0918" type="curve"/>
      <point x="189.014" y="-37.7852"/>
      <point x="145.478" y="-51.9453"/>
      <point x="122.746" y="-75" type="curve"/>
      <point x="430.676" y="-75" type="line"/>
      <point x="411.029" y="-30.9258"/>
      <point x="340.511" y="-24.7783"/>
      <point x="264.73" y="-18" type="curve"/>
      <point x="260.754" y="-17.8584"/>
      <point x="253.809" y="-17.335"/>
    </contour>
  </outline>
</glyph>
<glyph name="uni0206" format="1">
  <advance width="604"/>
  <unicode hex="0206"/>
  <outline>
    <contour>
      <point x="300.938" y="843.218" type="curve" smooth="yes"/>
      <point x="261.093" y="843.218"/>
      <point x="247.604" y="818.454"/>
      <point x="239.062" y="805.285" type="curve" smooth="yes"/>
      <point x="232.397" y="795.013"/>
      <point x="227.274" y="779.998"/>
      <point x="214.312" y="779.998" type="curve" smooth="yes"/>
      <point x="204.32" y="779.998"/>
      <point x="198.591" y="787.412"/>
      <point x="198.591" y="796.594" type="curve" smooth="yes"/>
      <point x="198.591" y="840.464"/>
      <point x="232.754" y="900.906"/>
      <point x="293.322" y="900.906" type="curve" smooth="yes"/>
      <point x="365.516" y="900.906"/>
      <point x="416.002" y="831.592"/>
      <point x="416.002" y="793.432" type="curve" smooth="yes"/>
      <point x="416.002" y="786.994"/>
      <point x="414.225" y="780.854"/>
      <point x="402.797" y="780.854" type="curve" smooth="yes"/>
      <point x="396.053" y="780.854"/>
      <point x="392.267" y="784.759"/>
      <point x="387.755" y="790.376" type="curve" smooth="yes"/>
      <point x="364.84" y="818.91"/>
      <point x="353.992" y="843.218"/>
    </contour>
    <component base="E"/>
  </outline>
</glyph>
<glyph name="uni020F" format="1">
  <advance width="547"/>
  <unicode hex="020F"/>
  <outline>
    <contour>
      <point x="264.325" y="626.54" type="curve" smooth="yes"/>
      <point x="235.025" y="626.54"/>
      <point x="225.106" y="604.604"/>
      <point x="218.825" y="592.939" type="curve" smooth="yes"/>
      <point x="213.925" y="583.84"/>
      <point x="210.157" y="570.54"/>
      <point x="200.625" y="570.54" type="curve" smooth="yes"/>
      <point x="193.278" y="570.54"/>
      <point x="189.065" y="577.107"/>
      <point x="189.065" y="585.24" type="curve" smooth="yes"/>
      <point x="189.065" y="624.101"/>
      <point x="214.187" y="677.64"/>
      <point x="258.725" y="677.64" type="curve" smooth="yes"/>
      <point x="311.811" y="677.64"/>
      <point x="348.935" y="616.241"/>
      <point x="348.935" y="582.439" type="curve" smooth="yes"/>
      <point x="348.935" y="576.737"/>
      <point x="347.628" y="571.299"/>
      <point x="339.225" y="571.299" type="curve" smooth="yes"/>
      <point x="334.266" y="571.299"/>
      <point x="331.481" y="574.757"/>
      <point x="328.164" y="579.732" type="curve" smooth="yes"/>
      <point x="311.313" y="605.008"/>
      <point x="303.337" y="626.54"/>
    </contour>
    <component base="o"/>
  </outline>
</glyph>
<glyph name="uni0237" format="1">
  <advance width="262"/>
  <unicode hex="0237"/>
  <outline>
    <contour>
      <point x="171" y="506.725" type="curve" smooth="yes"/>
      <point x="183.689" y="506.725"/>
      <point x="184.345" y="493.102"/>
      <point x="184.383" y="483.03" type="curve" smooth="yes"/>
      <point x="184.346" y="338.669"/>
      <point x="184.161" y="195.05"/>
      <point x="184.161" y="50.8691" type="curve" smooth="yes"/>
      <point x="184.161" y="-2.1582"/>
      <point x="170.4" y="-39.4658"/>
      <point x="127.597" y="-81.707" type="curve" smooth="yes"/>
      <point x="99.5977" y="-109.996"/>
      <point x="37.7715" y="-153.523"/>
      <point x="-42" y="-153.523" type="curve" smooth="yes"/>
      <point x="-64.4502" y="-153.523"/>
      <point x="-88.2627" y="-149.948"/>
      <point x="-112.976" y="-141.635" type="curve" smooth="yes"/>
      <point x="-123.601" y="-138.061"/>
      <point x="-128.956" y="-129.888"/>
      <point x="-128.956" y="-121" type="curve" smooth="yes"/>
      <point x="-128.956" y="-92.0107"/>
      <point x="-92.5977" y="-78.2393"/>
      <point x="-64" y="-78.2393" type="curve" smooth="yes"/>
      <point x="-28.8047" y="-78.2393"/>
      <point x="-3.90332" y="-103.614"/>
      <point x="23" y="-103.614" type="curve" smooth="yes"/>
      <point x="31.0928" y="-103.614"/>
      <point x="39.6826" y="-101.824"/>
      <point x="49.5889" y="-96.708" type="curve" smooth="yes"/>
      <point x="101.295" y="-70.6201"/>
      <point x="102.586" y="-43.2803"/>
      <point x="102.586" y="23.6406" type="curve" smooth="yes"/>
      <point x="102.586" y="432.813" type="line" smooth="yes"/>
      <point x="102.586" y="454.578"/>
      <point x="94.7964" y="463.783"/>
      <point x="75.7646" y="463.783" type="curve" smooth="yes"/>
      <point x="68.7646" y="463.783" type="line"/>
      <point x="68.7646" y="479.067" type="line"/>
      <point x="166.544" y="506.043" type="line" smooth="yes"/>
      <point x="167.859" y="506.414"/>
      <point x="169.301" y="506.725"/>
    </contour>
  </outline>
</glyph>
<glyph name="breve" format="1">
  <advance width="288"/>
  <unicode hex="02D8"/>
  <outline>
    <contour>
      <point x="149.004" y="441.05" type="curve" smooth="yes"/>
      <point x="184.208" y="441.05"/>
      <point x="189.422" y="458.346"/>
      <point x="207.019" y="484.741" type="curve" smooth="yes"/>
      <point x="210.197" y="489.508"/>
      <point x="214.905" y="496.291"/>
      <point x="223.903" y="496.291" type="curve" smooth="yes"/>
      <point x="237.531" y="496.291"/>
      <point x="240.613" y="484.76"/>
      <point x="240.613" y="478.15" type="curve" smooth="yes"/>
      <point x="240.613" y="441.271"/>
      <point x="201.83" y="375.95"/>
      <point x="143.403" y="375.95" type="curve" smooth="yes"/>
      <point x="92.5164" y="375.95"/>
      <point x="66.7441" y="435.057"/>
      <point x="66.7441" y="475.35" type="curve" smooth="yes"/>
      <point x="66.7441" y="485.426"/>
      <point x="72.6285" y="497.05"/>
      <point x="85.3037" y="497.05" type="curve" smooth="yes"/>
      <point x="101.511" y="497.05"/>
      <point x="106.271" y="477.276"/>
      <point x="109.667" y="470.969" type="curve" smooth="yes"/>
      <point x="116.259" y="458.728"/>
      <point x="124.128" y="441.05"/>
    </contour>
  </outline>
</glyph>
<glyph name="uni0307" format="1">
  <advance width="224"/>
  <unicode hex="0307"/>
  <outline>
    <contour>
      <point x="53" y="595" type="curve" smooth="yes"/>
      <point x="53" y="626.943"/>
      <point x="79.2236" y="653"/>
      <point x="112" y="653" type="curve" smooth="yes"/>
      <point x="143.881" y="653"/>
      <point x="170" y="626.881"/>
      <point x="170" y="595" type="curve" smooth="yes"/>
      <point x="170" y="563.119"/>
      <point x="143.881" y="537"/>
      <point x="112" y="537" type="curve" smooth="yes"/>
      <point x="79.2246" y="537"/>
      <point x="53" y="563.057"/>
    </contour>
  </outline>
</glyph>
<glyph name="figuredash" format="1">
  <advance width="539"/>
  <unicode hex="2012"/>
  <outline>
    <contour>
      <point x="68" y="276" type="line"/>
      <point x="68" y="320" type="line"/>
      <point x="472" y="320" type="line"/>
      <point x="472" y="276" type="line"/>
    </contour>
  </outline>
</glyph>
<glyph name="uni2015" format="1">
  <advance width="2000"/>
  <unicode hex="2015"/>
  <outline>
    <contour>
      <point x="68" y="276" type="line"/>
      <point x="68" y="320" type="line"/>
      <point x="1933" y="320" type="line"/>
      <point x="1933" y="276" type="line"/>
    </contour>
  </outline>
</glyph>
<glyph name="quoteleft" format="1">
  <advance width="236"/>
  <unicode hex="2018"/>
  <outline>
    <contour>
      <point x="160.71" y="597.761" type="curve" smooth="yes"/>
      <point x="160.71" y="568.092"/>
      <point x="138.67" y="545.389"/>
      <point x="105.601" y="545.389" type="curve" smooth="yes"/>
      <point x="78.9917" y="545.389"/>
      <point x="50.2442" y="562.026"/>
      <point x="43.8566" y="592.303" type="curve" smooth="yes"/>
      <point x="40.2393" y="609.449"/>
      <point x="38.564" y="625.756"/>
      <point x="38.564" y="641.135" type="curve" smooth="yes"/>
      <point x="38.564" y="726.885"/>
      <point x="90.7029" y="783.638"/>
      <point x="147.835" y="795.691" type="curve" smooth="yes"/>
      <point x="149.927" y="796.133" type="line"/>
      <point x="150.228" y="794.016" type="line"/>
      <point x="153.638" y="770.048" type="line"/>
      <point x="153.902" y="768.196" type="line"/>
      <point x="152.071" y="767.81" type="line" smooth="yes"/>
      <point x="109.747" y="758.881"/>
      <point x="91.9237" y="710.923"/>
      <point x="91.9237" y="679.594" type="curve" smooth="yes"/>
      <point x="91.9237" y="674.864"/>
      <point x="92.3342" y="670.552"/>
      <point x="93.1073" y="666.887" type="curve" smooth="yes"/>
      <point x="97.988" y="643.753"/>
      <point x="160.71" y="647.871"/>
    </contour>
  </outline>
</glyph>
<glyph name="quotedblright" format="1">
  <advance width="426"/>
  <unicode hex="201D"/>
  <outline>
    <contour>
      <point x="127.338" y="682.261" type="line" smooth="yes"/>
      <point x="156.566" y="682.261"/>
      <point x="188.536" y="658.785"/>
      <point x="188.536" y="624.284" type="curve" smooth="yes"/>
      <point x="188.536" y="509.938"/>
      <point x="114.454" y="448.739"/>
      <point x="46.8135" y="448.739" type="curve"/>
      <point x="48.4229" y="472.895" type="line"/>
      <point x="99.959" y="472.895"/>
      <point x="128.948" y="531.863"/>
      <point x="128.948" y="561.473" type="curve" smooth="yes"/>
      <point x="128.948" y="585.632"/>
      <point x="75.8008" y="593.684"/>
      <point x="75.8008" y="630.726" type="curve" smooth="yes"/>
      <point x="75.8008" y="659.713"/>
      <point x="96.7393" y="682.261"/>
      <point x="124.117" y="682.261" type="curve" smooth="yes"/>
    </contour>
    <contour>
      <point x="318.988" y="682.261" type="line" smooth="yes"/>
      <point x="348.217" y="682.261"/>
      <point x="380.187" y="658.785"/>
      <point x="380.187" y="624.284" type="curve" smooth="yes"/>
      <point x="380.187" y="509.938"/>
      <point x="306.105" y="448.739"/>
      <point x="238.464" y="448.739" type="curve"/>
      <point x="240.075" y="472.895" type="line"/>
      <point x="291.608" y="472.895"/>
      <point x="320.601" y="531.863"/>
      <point x="320.601" y="561.473" type="curve" smooth="yes"/>
      <point x="320.601" y="585.632"/>
      <point x="267.451" y="593.684"/>
      <point x="267.451" y="630.726" type="curve" smooth="yes"/>
      <point x="267.451" y="659.713"/>
      <point x="288.391" y="682.261"/>
      <point x="315.768" y="682.261" type="curve" smooth="yes"/>
    </contour>
  </outline>
</glyph>
<glyph name="quotedblbase" format="1">
  <advance width="401"/>
  <unicode hex="201E"/>
  <outline>
    <contour>
      <point x="48.6348" y="59.2891" type="curve" smooth="yes"/>
      <point x="48.6348" y="88.9641"/>
      <point x="70.6697" y="111.662"/>
      <point x="103.735" y="111.662" type="curve" smooth="yes"/>
      <point x="130.36" y="111.662"/>
      <point x="159.128" y="94.9984"/>
      <point x="165.493" y="64.6954" type="curve" smooth="yes"/>
      <point x="169.082" y="47.6142"/>
      <point x="170.744" y="31.3664"/>
      <point x="170.744" y="16.042" type="curve" smooth="yes"/>
      <point x="170.744" y="-69.8114"/>
      <point x="118.522" y="-126.591"/>
      <point x="61.3389" y="-138.603" type="curve" smooth="yes"/>
      <point x="59.2469" y="-139.042" type="line"/>
      <point x="58.9474" y="-136.926" type="line"/>
      <point x="55.5568" y="-112.956" type="line"/>
      <point x="55.2947" y="-111.103" type="line"/>
      <point x="57.1259" y="-110.719" type="line" smooth="yes"/>
      <point x="99.4911" y="-101.819"/>
      <point x="117.349" y="-53.8121"/>
      <point x="117.349" y="-22.4854" type="curve" smooth="yes"/>
      <point x="117.349" y="-17.7825"/>
      <point x="116.942" y="-13.495"/>
      <point x="116.176" y="-9.84666" type="curve" smooth="yes"/>
      <point x="111.317" y="13.2829"/>
      <point x="48.6348" y="9.22616"/>
    </contour>
    <contour>
      <point x="240.31" y="59.0107" type="curve" smooth="yes"/>
      <point x="240.31" y="88.6576"/>
      <point x="262.374" y="111.373"/>
      <point x="295.467" y="111.373" type="curve" smooth="yes"/>
      <point x="322.003" y="111.373"/>
      <point x="350.654" y="94.8596"/>
      <point x="357.142" y="64.7048" type="curve" smooth="yes"/>
      <point x="360.895" y="47.2605"/>
      <point x="362.63" y="30.6784"/>
      <point x="362.63" y="15.0547" type="curve" smooth="yes"/>
      <point x="362.63" y="-70.2281"/>
      <point x="310.87" y="-126.855"/>
      <point x="253.972" y="-139.095" type="curve" smooth="yes"/>
      <point x="251.882" y="-139.545" type="line"/>
      <point x="251.573" y="-137.429" type="line"/>
      <point x="248.068" y="-113.476" type="line"/>
      <point x="247.797" y="-111.625" type="line"/>
      <point x="249.626" y="-111.231" type="line" smooth="yes"/>
      <point x="291.764" y="-102.166"/>
      <point x="309.423" y="-54.4477"/>
      <point x="309.423" y="-23.1064" type="curve" smooth="yes"/>
      <point x="309.423" y="-18.2472"/>
      <point x="308.993" y="-13.8221"/>
      <point x="308.187" y="-10.0749" type="curve" smooth="yes"/>
      <point x="303.208" y="13.0747"/>
      <point x="240.31" y="8.68582"/>
    </contour>
  </outline>
</glyph>
<glyph name="fraction" format="1">
  <advance width="102"/>
  <unicode hex="2044"/>
  <outline>
    <contour>
      <point x="187.571" y="651" type="line"/>
      <point x="232.064" y="651" type="line"/>
      <point x="-84.5713" y="-17" type="line"/>
      <point x="-129.064" y="-17" type="line"/>
    </contour>
  </outline>
</glyph>
<glyph name="uni20BA" format="1">
  <advance width="573"/>
  <unicode hex="20BA"/>
  <outline>
    <contour>
      <point x="182.358" y="512.778" type="curve" smooth="yes"/>
      <point x="182.358" y="473.24"/>
      <point x="182.358" y="464.546"/>
      <point x="182.358" y="440.713" type="curve" smooth="yes"/>
      <point x="60.4814" y="397.652" type="line" smooth="yes"/>
      <point x="60.4814" y="389.524"/>
      <point x="60.4814" y="372.465"/>
      <point x="60.4814" y="346.457" type="curve"/>
      <point x="63.1904" y="347"/>
      <point x="66.3057" y="347.812"/>
      <point x="69.8271" y="348.898" type="curve" smooth="yes"/>
      <point x="73.3467" y="349.979"/>
      <point x="75.1074" y="350.521"/>
      <point x="75.1074" y="350.521" type="curve"/>
      <point x="139.3" y="374.087" type="line" smooth="yes"/>
      <point x="142.008" y="374.631"/>
      <point x="148.368" y="376.797"/>
      <point x="158.395" y="380.585" type="curve" smooth="yes"/>
      <point x="168.413" y="384.382"/>
      <point x="176.403" y="387.626"/>
      <point x="182.358" y="390.336" type="curve"/>
      <point x="182.358" y="374.631"/>
      <point x="182.358" y="365.147"/>
      <point x="182.358" y="361.895" type="curve" smooth="yes"/>
      <point x="60.4814" y="318.023" type="line" smooth="yes"/>
      <point x="60.4814" y="300.145"/>
      <point x="60.4814" y="285.085"/>
      <point x="60.4814" y="268.828" type="curve" smooth="yes"/>
      <point x="171.797" y="306.644" type="line" smooth="yes"/>
      <point x="178.838" y="309.353"/>
      <point x="182.358" y="310.707"/>
      <point x="182.358" y="310.707" type="curve"/>
      <point x="182.358" y="274.957"/>
      <point x="182.358" y="223.871"/>
      <point x="182.358" y="153.45" type="curve" smooth="yes"/>
      <point x="182.358" y="83.0361"/>
      <point x="183.358" y="30.2178"/>
      <point x="183.358" y="-4.98828" type="curve"/>
      <point x="277.802" y="-14.9307"/>
      <point x="378.939" y="12.7979"/>
      <point x="439.481" y="64.3115" type="curve" smooth="yes"/>
      <point x="508.701" y="123.208"/>
      <point x="548" y="213.195"/>
      <point x="548" y="313.519" type="curve"/>
      <point x="504.666" y="313.519"/>
      <point x="483.999" y="313.519"/>
      <point x="483.999" y="313.519" type="curve"/>
      <point x="483.999" y="168.78"/>
      <point x="388.914" y="59.5195"/>
      <point x="260.549" y="44.0137" type="curve"/>
      <point x="260.549" y="44.0137"/>
      <point x="260.549" y="44.2812"/>
      <point x="260.549" y="44.8252" type="curve" smooth="yes"/>
      <point x="260.549" y="45.3682"/>
      <point x="260.549" y="45.6367"/>
      <point x="260.549" y="45.6367" type="curve" smooth="yes"/>
      <point x="260.549" y="78.6777"/>
      <point x="260.549" y="140.316"/>
      <point x="260.549" y="198.545" type="curve" smooth="yes"/>
      <point x="260.549" y="256.781"/>
      <point x="260.549" y="302.421"/>
      <point x="260.549" y="335.462" type="curve" smooth="yes"/>
      <point x="262.172" y="336.541"/>
      <point x="265.07" y="337.628"/>
      <point x="267.236" y="338.707" type="curve" smooth="yes"/>
      <point x="453.936" y="406.15" type="line" smooth="yes"/>
      <point x="455.014" y="406.15"/>
      <point x="455.557" y="407.229"/>
      <point x="455.557" y="409.396" type="curve" smooth="yes"/>
      <point x="455.557" y="412.106"/>
      <point x="455.557" y="420.096"/>
      <point x="455.557" y="433.367" type="curve" smooth="yes"/>
      <point x="455.557" y="446.639"/>
      <point x="455.557" y="454.904"/>
      <point x="455.557" y="458.149" type="curve" smooth="yes"/>
      <point x="366.178" y="424.842" type="line"/>
      <point x="260.549" y="387.46" type="line" smooth="yes"/>
      <point x="260.549" y="389.626"/>
      <point x="260.549" y="394.234"/>
      <point x="260.549" y="401.275" type="curve" smooth="yes"/>
      <point x="260.549" y="408.316"/>
      <point x="260.549" y="412.924"/>
      <point x="260.549" y="415.09" type="curve" smooth="yes"/>
      <point x="455.557" y="485.779" type="line" smooth="yes"/>
      <point x="455.557" y="500.941"/>
      <point x="455.557" y="518.009"/>
      <point x="455.557" y="536.967" type="curve" smooth="yes"/>
      <point x="260.549" y="466.278" type="line" smooth="yes"/>
      <point x="260.549" y="472.232"/>
      <point x="260.549" y="474.861"/>
      <point x="260.549" y="524.152" type="curve" smooth="yes"/>
      <point x="260.549" y="555.721"/>
      <point x="260.556" y="587.28"/>
      <point x="260.56" y="618.845" type="curve" smooth="yes"/>
      <point x="261" y="631"/>
      <point x="259.079" y="636.081"/>
      <point x="254.511" y="636.081" type="curve" smooth="yes"/>
      <point x="253.66" y="636.081"/>
      <point x="252.701" y="635.985"/>
      <point x="251.623" y="635.697" type="curve" smooth="yes"/>
      <point x="153.92" y="611.5" type="line"/>
      <point x="153.92" y="597.916" type="line"/>
      <point x="158.085" y="597.916"/>
      <point x="158.066" y="596.505"/>
      <point x="163.391" y="594.615" type="curve" smooth="yes"/>
      <point x="176.319" y="590.026"/>
      <point x="183.047" y="577.999"/>
      <point x="182.737" y="559.57" type="curve" smooth="yes"/>
      <point x="182.479" y="544.179"/>
      <point x="182.358" y="528.575"/>
    </contour>
  </outline>
</glyph>
<glyph name="uni2120" format="1">
  <advance width="444"/>
  <unicode hex="2120"/>
  <outline>
    <contour>
      <point x="384.885" y="545.055" type="curve" smooth="yes"/>
      <point x="384.989" y="540.056"/>
      <point x="390.75" y="535.592"/>
      <point x="397.168" y="535.515" type="curve" smooth="yes"/>
      <point x="399.042" y="535.491" type="line"/>
      <point x="399.042" y="530.26" type="line"/>
      <point x="338.539" y="530.26" type="line"/>
      <point x="338.539" y="535.371" type="line"/>
      <point x="340.682" y="535.396" type="line" smooth="yes"/>
      <point x="347.186" y="535.484"/>
      <point x="352.626" y="540.256"/>
      <point x="352.704" y="545.34" type="curve" smooth="yes"/>
      <point x="352.969" y="562.749"/>
      <point x="353.353" y="580.152"/>
      <point x="353.353" y="597.49" type="curve" smooth="yes"/>
      <point x="353.353" y="619.429"/>
      <point x="353.354" y="642.208"/>
      <point x="353.354" y="664.45" type="curve" smooth="yes"/>
      <point x="353.354" y="673.069"/>
      <point x="353.336" y="679.706"/>
      <point x="353.29" y="688.02" type="curve"/>
      <point x="289.261" y="565.895" type="line"/>
      <point x="288.389" y="564.226"/>
      <point x="285.758" y="560.323"/>
      <point x="282.941" y="560.323" type="curve" smooth="yes"/>
      <point x="280.989" y="560.323"/>
      <point x="279.606" y="561.809"/>
      <point x="278.641" y="563.772" type="curve" smooth="yes"/>
      <point x="278.641" y="563.772"/>
      <point x="231.294" y="659.91"/>
      <point x="217.922" y="687.89" type="curve"/>
      <point x="213.026" y="545.188" type="line"/>
      <point x="213.497" y="540.13"/>
      <point x="218.8" y="535.755"/>
      <point x="225.303" y="535.667" type="curve" smooth="yes"/>
      <point x="227.175" y="535.643" type="line"/>
      <point x="227.175" y="530.26" type="line"/>
      <point x="178.07" y="530.26" type="line"/>
      <point x="178.07" y="535.489" type="line"/>
      <point x="179.942" y="535.515" type="line" smooth="yes"/>
      <point x="186.803" y="535.604"/>
      <point x="192.012" y="540.062"/>
      <point x="192.233" y="545.628" type="curve" smooth="yes"/>
      <point x="194.441" y="600.909"/>
      <point x="196.361" y="656.654"/>
      <point x="197.659" y="712.727" type="curve"/>
      <point x="197.659" y="712.802"/>
      <point x="197.659" y="712.918"/>
      <point x="197.659" y="712.997" type="curve" smooth="yes"/>
      <point x="197.659" y="718.174"/>
      <point x="191.879" y="722.927"/>
      <point x="185.365" y="723.012" type="curve" smooth="yes"/>
      <point x="183.493" y="723.036" type="line"/>
      <point x="183.493" y="728.156" type="line"/>
      <point x="232.254" y="728.156" type="line"/>
      <point x="294" y="606" type="line"/>
      <point x="356.938" y="728.155" type="line"/>
      <point x="399.041" y="728.155" type="line"/>
      <point x="399.041" y="723.034" type="line"/>
      <point x="397.166" y="723.011" type="line" smooth="yes"/>
      <point x="390.841" y="722.936"/>
      <point x="384.91" y="718.756"/>
      <point x="384.885" y="713.754" type="curve" smooth="yes"/>
      <point x="384.664" y="697.198"/>
      <point x="384.009" y="680.739"/>
      <point x="384.009" y="664.32" type="curve" smooth="yes"/>
      <point x="384.009" y="652.718"/>
      <point x="383.99" y="641.169"/>
      <point x="383.99" y="629.659" type="curve" smooth="yes"/>
      <point x="383.99" y="601.306"/>
      <point x="384.103" y="573.184"/>
    </contour>
    <contour>
      <point x="46.3711" y="582.63" type="curve"/>
      <point x="47.9268" y="569.068"/>
      <point x="63.8682" y="541.245"/>
      <point x="91.9844" y="541.245" type="curve" smooth="yes"/>
      <point x="114.793" y="541.245"/>
      <point x="130.839" y="557.014"/>
      <point x="130.839" y="576.93" type="curve" smooth="yes"/>
      <point x="130.839" y="597.184"/>
      <point x="115.768" y="609.98"/>
      <point x="91.667" y="623.866" type="curve" smooth="yes"/>
      <point x="66.2812" y="638.492"/>
      <point x="33.2988" y="659.434"/>
      <point x="33.2988" y="682.025" type="curve" smooth="yes"/>
      <point x="33.2988" y="707.091"/>
      <point x="61.5635" y="732.33"/>
      <point x="105.259" y="732.33" type="curve" smooth="yes"/>
      <point x="129.741" y="732.33"/>
      <point x="156.191" y="724.651"/>
      <point x="156.191" y="716.914" type="curve" smooth="yes"/>
      <point x="156.191" y="713.278"/>
      <point x="152.274" y="692.804"/>
      <point x="144.87" y="692.804" type="curve" smooth="yes"/>
      <point x="135.288" y="692.804"/>
      <point x="132.331" y="720.355"/>
      <point x="100.609" y="720.355" type="curve" smooth="yes"/>
      <point x="74.8984" y="720.355"/>
      <point x="65.6924" y="701.583"/>
      <point x="65.6924" y="689.131" type="curve" smooth="yes"/>
      <point x="65.6924" y="670.473"/>
      <point x="83.8975" y="659.456"/>
      <point x="107.65" y="646.107" type="curve" smooth="yes"/>
      <point x="136.562" y="629.514"/>
      <point x="165.417" y="612.535"/>
      <point x="165.417" y="587.893" type="curve" smooth="yes"/>
      <point x="165.417" y="548.273"/>
      <point x="126.656" y="526.56"/>
      <point x="92.335" y="526.56" type="curve" smooth="yes"/>
      <point x="50.7266" y="526.56"/>
      <point x="25.835" y="549.97"/>
      <point x="25.835" y="562.838" type="curve" smooth="yes"/>
      <point x="25.835" y="569.314"/>
      <point x="36.1455" y="585.554"/>
      <point x="42.8018" y="585.554" type="curve" smooth="yes"/>
      <point x="43.7178" y="585.554"/>
      <point x="46.1143" y="585.109"/>
    </contour>
  </outline>
</glyph>
<glyph name="trademark" format="1">
  <advance width="513"/>
  <unicode hex="2122"/>
  <outline>
    <contour>
      <point x="444.885" y="545.055" type="curve" smooth="yes"/>
      <point x="444.989" y="540.056"/>
      <point x="450.75" y="535.592"/>
      <point x="457.168" y="535.515" type="curve" smooth="yes"/>
      <point x="459.042" y="535.491" type="line"/>
      <point x="459.042" y="530.26" type="line"/>
      <point x="398.539" y="530.26" type="line"/>
      <point x="398.539" y="535.371" type="line"/>
      <point x="400.682" y="535.396" type="line" smooth="yes"/>
      <point x="407.186" y="535.484"/>
      <point x="412.626" y="540.256"/>
      <point x="412.704" y="545.34" type="curve" smooth="yes"/>
      <point x="412.969" y="562.749"/>
      <point x="413.353" y="580.152"/>
      <point x="413.353" y="597.49" type="curve" smooth="yes"/>
      <point x="413.353" y="619.429"/>
      <point x="413.354" y="642.208"/>
      <point x="413.354" y="664.45" type="curve" smooth="yes"/>
      <point x="413.354" y="673.069"/>
      <point x="413.336" y="679.706"/>
      <point x="413.29" y="688.02" type="curve"/>
      <point x="349.261" y="565.895" type="line"/>
      <point x="348.389" y="564.226"/>
      <point x="345.758" y="560.323"/>
      <point x="342.941" y="560.323" type="curve" smooth="yes"/>
      <point x="340.989" y="560.323"/>
      <point x="339.606" y="561.809"/>
      <point x="338.641" y="563.772" type="curve" smooth="yes"/>
      <point x="338.641" y="563.772"/>
      <point x="291.294" y="659.91"/>
      <point x="277.922" y="687.89" type="curve"/>
      <point x="273.026" y="545.188" type="line"/>
      <point x="273.497" y="540.13"/>
      <point x="278.8" y="535.755"/>
      <point x="285.303" y="535.667" type="curve" smooth="yes"/>
      <point x="287.175" y="535.643" type="line"/>
      <point x="287.175" y="530.26" type="line"/>
      <point x="238.07" y="530.26" type="line"/>
      <point x="238.07" y="535.489" type="line"/>
      <point x="239.942" y="535.515" type="line" smooth="yes"/>
      <point x="246.803" y="535.604"/>
      <point x="252.012" y="540.062"/>
      <point x="252.233" y="545.628" type="curve" smooth="yes"/>
      <point x="254.441" y="600.909"/>
      <point x="256.361" y="656.654"/>
      <point x="257.659" y="712.727" type="curve"/>
      <point x="257.659" y="712.802"/>
      <point x="257.659" y="712.918"/>
      <point x="257.659" y="712.997" type="curve" smooth="yes"/>
      <point x="257.659" y="718.174"/>
      <point x="251.879" y="722.927"/>
      <point x="245.365" y="723.012" type="curve" smooth="yes"/>
      <point x="243.493" y="723.036" type="line"/>
      <point x="243.493" y="728.156" type="line"/>
      <point x="292.254" y="728.156" type="line"/>
      <point x="354" y="606" type="line"/>
      <point x="416.938" y="728.155" type="line"/>
      <point x="459.041" y="728.155" type="line"/>
      <point x="459.041" y="723.034" type="line"/>
      <point x="457.166" y="723.011" type="line" smooth="yes"/>
      <point x="450.841" y="722.936"/>
      <point x="444.91" y="718.756"/>
      <point x="444.885" y="713.754" type="curve" smooth="yes"/>
      <point x="444.664" y="697.198"/>
      <point x="444.009" y="680.739"/>
      <point x="444.009" y="664.32" type="curve" smooth="yes"/>
      <point x="444.009" y="652.718"/>
      <point x="443.99" y="641.169"/>
      <point x="443.99" y="629.659" type="curve" smooth="yes"/>
      <point x="443.99" y="601.306"/>
      <point x="444.103" y="573.184"/>
    </contour>
    <contour>
      <point x="109.868" y="716.699" type="curve" smooth="yes"/>
      <point x="100.428" y="716.699"/>
      <point x="83.2461" y="715.887"/>
      <point x="75.3496" y="714.527" type="curve" smooth="yes"/>
      <point x="63.8955" y="712.526"/>
      <point x="59.0908" y="704.599"/>
      <point x="56.5498" y="691" type="curve"/>
      <point x="50.0566" y="691.006" type="line"/>
      <point x="55.2842" y="727.471" type="line"/>
      <point x="55.3154" y="727.582" type="line" smooth="yes"/>
      <point x="55.7861" y="729.271"/>
      <point x="57.4463" y="729.771"/>
      <point x="58.498" y="729.771" type="curve" smooth="yes"/>
      <point x="60.6465" y="729.771"/>
      <point x="63.2646" y="728.933"/>
      <point x="65.0215" y="728.906" type="curve" smooth="yes"/>
      <point x="75.0068" y="728.755"/>
      <point x="108.163" y="728.156"/>
      <point x="142.417" y="728.156" type="curve"/>
      <point x="172.484" y="728.427"/>
      <point x="197.465" y="728.903"/>
      <point x="221.802" y="729.444" type="curve" smooth="yes"/>
      <point x="222.683" y="729.464"/>
      <point x="226.661" y="730.264"/>
      <point x="228.477" y="730.264" type="curve" smooth="yes"/>
      <point x="229.82" y="730.264"/>
      <point x="230.815" y="730.087"/>
      <point x="230.815" y="727.041" type="curve"/>
      <point x="229.666" y="690.909" type="line"/>
      <point x="224.046" y="690.851" type="line"/>
      <point x="224.005" y="700.457"/>
      <point x="221.842" y="713.116"/>
      <point x="213.61" y="715.081" type="curve" smooth="yes"/>
      <point x="207.53" y="716.532"/>
      <point x="199.655" y="716.603"/>
      <point x="183.044" y="716.603" type="curve" smooth="yes"/>
      <point x="178.209" y="716.603"/>
      <point x="173.982" y="716.487"/>
      <point x="168.863" y="716.386" type="curve" smooth="yes"/>
      <point x="164.774" y="716.303"/>
      <point x="162.988" y="713.149"/>
      <point x="162.956" y="710.213" type="curve" smooth="yes"/>
      <point x="162.488" y="679.213"/>
      <point x="162.198" y="650.229"/>
      <point x="162.198" y="619.281" type="curve" smooth="yes"/>
      <point x="162.198" y="594.5"/>
      <point x="162.423" y="569.763"/>
      <point x="162.973" y="545.026" type="curve"/>
      <point x="163.006" y="542.437"/>
      <point x="165.184" y="538.323"/>
      <point x="169.553" y="536.644" type="curve" smooth="yes"/>
      <point x="171.475" y="535.904"/>
      <point x="173.112" y="535.516"/>
      <point x="175.266" y="535.488" type="curve" smooth="yes"/>
      <point x="177.139" y="535.463" type="line"/>
      <point x="177.139" y="530.26" type="line"/>
      <point x="108.638" y="530.26" type="line"/>
      <point x="108.638" y="535.465" type="line"/>
      <point x="110.511" y="535.488" type="line" smooth="yes"/>
      <point x="113.861" y="535.529"/>
      <point x="115.128" y="535.78"/>
      <point x="117.629" y="537.122" type="curve" smooth="yes"/>
      <point x="121.47" y="539.184"/>
      <point x="122.444" y="542.472"/>
      <point x="122.477" y="544.914" type="curve" smooth="yes"/>
      <point x="122.855" y="562.478"/>
      <point x="123.258" y="601.975"/>
      <point x="123.258" y="619.509" type="curve" smooth="yes"/>
      <point x="123.258" y="657.128"/>
      <point x="122.924" y="670.765"/>
      <point x="122.854" y="708.508" type="curve" smooth="yes"/>
      <point x="122.854" y="712.788"/>
      <point x="121.254" y="715.919"/>
      <point x="118.272" y="716.348" type="curve" smooth="yes"/>
      <point x="116.712" y="716.571"/>
      <point x="113.622" y="716.699"/>
    </contour>
  </outline>
</glyph>
<glyph name="uniFB01" format="1">
  <advance width="510"/>
  <unicode hex="FB01"/>
  <outline>
    <contour>
      <point x="338.038" y="20" type="line" smooth="yes"/>
      <point x="358.296" y="20"/>
      <point x="364.955" y="29.5846"/>
      <point x="367.038" y="43.9355" type="curve"/>
      <point x="367.038" y="439.678" type="line" smooth="yes"/>
      <point x="367.038" y="457.504"/>
      <point x="359.358" y="460"/>
      <point x="344.038" y="460" type="curve" smooth="yes"/>
      <point x="147.038" y="460" type="line"/>
      <point x="147.038" y="43.9355" type="line"/>
      <point x="149.203" y="29.0017"/>
      <point x="155.768" y="20"/>
      <point x="176.038" y="20" type="curve" smooth="yes"/>
      <point x="183.038" y="20" type="line"/>
      <point x="183.038" y="0" type="line"/>
      <point x="31.0381" y="0" type="line"/>
      <point x="31.0381" y="20" type="line"/>
      <point x="38.0381" y="20" type="line" smooth="yes"/>
      <point x="58.3091" y="20"/>
      <point x="64.9588" y="29.6075"/>
      <point x="67.0381" y="43.9805" type="curve"/>
      <point x="67.0381" y="461.269" type="line"/>
      <point x="29.4221" y="460.411"/>
      <point x="23.8045" y="458.207"/>
      <point x="9" y="456.099" type="curve"/>
      <point x="20.4229" y="496" type="line"/>
      <point x="67.0381" y="496" type="line"/>
      <point x="67.0381" y="536" type="line" smooth="yes"/>
      <point x="67.0381" y="545.436"/>
      <point x="68.0381" y="558.436"/>
      <point x="68.0381" y="567" type="curve" smooth="yes"/>
      <point x="68.0381" y="709.051"/>
      <point x="162.219" y="764.168"/>
      <point x="296.024" y="764.168" type="curve" smooth="yes"/>
      <point x="337.64" y="764.168"/>
      <point x="450.038" y="732.559"/>
      <point x="450.038" y="663" type="curve" smooth="yes"/>
      <point x="450.038" y="633.997"/>
      <point x="429.695" y="613"/>
      <point x="400.038" y="613" type="curve" smooth="yes"/>
      <point x="376.018" y="613"/>
      <point x="362.432" y="625.977"/>
      <point x="354.685" y="644.054" type="curve"/>
      <point x="334.829" y="683.535"/>
      <point x="335.701" y="740"/>
      <point x="274.292" y="740" type="curve" smooth="yes"/>
      <point x="198.497" y="740"/>
      <point x="139.038" y="672.938"/>
      <point x="139.038" y="572" type="curve" smooth="yes"/>
      <point x="139.038" y="496" type="line"/>
      <point x="385.087" y="496" type="line"/>
      <point x="429.143" y="508.739" type="line"/>
      <point x="430.918" y="509.246"/>
      <point x="432.684" y="509.413"/>
      <point x="434.038" y="509.413" type="curve" smooth="yes"/>
      <point x="447.022" y="509.413"/>
      <point x="447.038" y="494.85"/>
      <point x="447.038" y="485.692" type="curve" smooth="yes"/>
      <point x="447.038" y="43.9922" type="line"/>
      <point x="449.198" y="29.0283"/>
      <point x="455.892" y="20"/>
      <point x="476.038" y="20" type="curve" smooth="yes"/>
      <point x="483.038" y="20" type="line"/>
      <point x="483.038" y="0" type="line"/>
      <point x="331.038" y="0" type="line"/>
      <point x="331.038" y="20" type="line"/>
    </contour>
  </outline>
</glyph>
